<svg xmlns="http://www.w3.org/2000/svg" viewBox="0 0 500 500"><g id="freepik--background-complete--inject-2"><path d="M149.43,151.66a6.44,6.44,0,0,0-3-2.5,6.22,6.22,0,0,0-3.75-.48A5.09,5.09,0,0,0,139.5,151a5,5,0,0,0-.71,2.3,5,5,0,0,0-2-.85,5.07,5.07,0,0,0-3.87.91,6.26,6.26,0,0,0-2.12,3.14,6.44,6.44,0,0,0-.06,3.86,7.93,7.93,0,0,0,2.88,4,11.05,11.05,0,0,0,4.95,1.67c2.89.34,6.65.7,6.65.7s1.67-3,3.32-5.43a11,11,0,0,0,2-4.83A7.84,7.84,0,0,0,149.43,151.66Z" style="fill:#e0e0e0"></path><path d="M362.21,229.66a6.41,6.41,0,0,0-1.84-3.4,6.18,6.18,0,0,0-3.32-1.82,5,5,0,0,0-5.35,2.85,4.92,4.92,0,0,0-1.56-1.52,5,5,0,0,0-3.93-.56,6.15,6.15,0,0,0-3.12,2.14,6.42,6.42,0,0,0-1.46,3.58,7.83,7.83,0,0,0,1.22,4.76,11.18,11.18,0,0,0,4,3.37c2.56,1.37,5.94,3.07,5.94,3.07s2.66-2.21,5.07-3.84a11.09,11.09,0,0,0,3.63-3.77A7.84,7.84,0,0,0,362.21,229.66Z" style="fill:#e0e0e0"></path><path d="M274.13,84.37a8.38,8.38,0,0,0-1.44-4.76A8,8,0,0,0,269,76.49a6.41,6.41,0,0,0-7.47,2.22,6.39,6.39,0,0,0-1.58-2.32,6.52,6.52,0,0,0-4.81-1.71,7.93,7.93,0,0,0-4.47,1.91,8.29,8.29,0,0,0-2.76,4.13,10.09,10.09,0,0,0,.33,6.31,14.3,14.3,0,0,0,4.17,5.26c2.89,2.38,6.7,5.39,6.7,5.39s3.92-2.11,7.38-3.55A14.24,14.24,0,0,0,272,90.3,10,10,0,0,0,274.13,84.37Z" style="fill:#e0e0e0"></path><path d="M417.41,158.26a17.57,17.57,0,0,0-3.61-9.89,16.86,16.86,0,0,0-8.25-6.17,13.75,13.75,0,0,0-10.76,1.11A13.59,13.59,0,0,0,390,147.8,13.57,13.57,0,0,0,376,140a16.82,16.82,0,0,0-9.23,4.58,17.46,17.46,0,0,0-5.34,9.06A21.35,21.35,0,0,0,362.88,167c2.05,4.24,5.67,7.85,9.46,10.64,6.39,4.69,14.83,10.6,14.83,10.6s8-4.94,15.17-8.39c4.24-2.06,8.45-5,11.23-8.75A21.33,21.33,0,0,0,417.41,158.26Z" style="fill:#f5f5f5"></path><path d="M127.31,65.2a17.54,17.54,0,0,0-7.25-7.62,16.83,16.83,0,0,0-10-2.38A13.59,13.59,0,0,0,98,66.53,13.56,13.56,0,0,0,82.08,65a16.76,16.76,0,0,0-6.64,7.87,17.51,17.51,0,0,0-1.29,10.45,21.27,21.27,0,0,0,6.63,11.62c3.57,3.08,8.32,4.94,12.92,6,7.73,1.75,17.82,3.82,17.82,3.82S116.92,97,122.09,91c3.07-3.58,5.77-7.9,6.81-12.5A21.31,21.31,0,0,0,127.31,65.2Z" style="fill:#f5f5f5"></path><path d="M343.4,47.22a15.83,15.83,0,0,0-3.57-8.83,15.18,15.18,0,0,0-7.64-5.34,12.29,12.29,0,0,0-13.89,5.53,12.34,12.34,0,0,0-3.42-4.17A12.52,12.52,0,0,0,305.39,32a15.23,15.23,0,0,0-8.21,4.42,15.88,15.88,0,0,0-4.57,8.36,19.28,19.28,0,0,0,1.71,12,27.29,27.29,0,0,0,8.88,9.35c5.92,4,13.73,9.15,13.73,9.15s7.13-4.71,13.48-8a27.36,27.36,0,0,0,9.9-8.25A19.35,19.35,0,0,0,343.4,47.22Z" style="fill:#f5f5f5"></path><path d="M103.41,264.06a7.43,7.43,0,0,0-1.67-4.13,7.13,7.13,0,0,0-3.57-2.5A5.73,5.73,0,0,0,91.69,260a5.74,5.74,0,0,0-6-3.09A7.09,7.09,0,0,0,81.82,259a7.39,7.39,0,0,0-2.13,3.9,9,9,0,0,0,.8,5.6,12.73,12.73,0,0,0,4.14,4.37c2.77,1.89,6.42,4.27,6.42,4.27s3.32-2.2,6.29-3.76a12.83,12.83,0,0,0,4.63-3.85A9.09,9.09,0,0,0,103.41,264.06Z" style="fill:#f5f5f5"></path><path d="M206.31,43.61a8.75,8.75,0,0,0-1.43-5.08A8.38,8.38,0,0,0,201,35.14a6.9,6.9,0,0,0-5.42.15A6.81,6.81,0,0,0,193,37.35a6.81,6.81,0,0,0-1.63-2.5,6.93,6.93,0,0,0-5.08-1.91,8.49,8.49,0,0,0-4.78,1.94,8.77,8.77,0,0,0-3,4.33,10.66,10.66,0,0,0,.22,6.7,15,15,0,0,0,4.33,5.67c3,2.59,7,5.86,7,5.86s4.21-2.17,7.9-3.62a15.13,15.13,0,0,0,5.94-4A10.67,10.67,0,0,0,206.31,43.61Z" style="fill:#f5f5f5"></path><path d="M84.75,181.57a14.36,14.36,0,0,0-2.34-8.32A13.79,13.79,0,0,0,76,167.69,11.15,11.15,0,0,0,63,171.31a11.15,11.15,0,0,0-11-7.22,13.87,13.87,0,0,0-7.84,3.18,14.4,14.4,0,0,0-4.93,7.09,17.54,17.54,0,0,0,.36,11,24.84,24.84,0,0,0,7.09,9.3c5,4.24,11.49,9.6,11.49,9.6s6.89-3.55,12.94-5.94a24.73,24.73,0,0,0,9.74-6.47A17.43,17.43,0,0,0,84.75,181.57Z" style="fill:#f5f5f5"></path><path d="M459.11,214a9.19,9.19,0,0,0-1.49-5.3,8.88,8.88,0,0,0-4.06-3.54,7.08,7.08,0,0,0-8.32,2.31,7.07,7.07,0,0,0-7-4.6,8.74,8.74,0,0,0-5,2,9.18,9.18,0,0,0-3.14,4.52,11.07,11.07,0,0,0,.23,7,15.74,15.74,0,0,0,4.51,5.92c3.15,2.7,7.32,6.11,7.32,6.11s4.38-2.26,8.24-3.78a15.86,15.86,0,0,0,6.2-4.12A11.09,11.09,0,0,0,459.11,214Z" style="fill:#f5f5f5"></path><path d="M392.64,89.65A8,8,0,0,0,391.33,85a7.64,7.64,0,0,0-3.54-3.09,6.19,6.19,0,0,0-7.26,2A6.14,6.14,0,0,0,379,81.68a6.29,6.29,0,0,0-4.62-1.74,7.64,7.64,0,0,0-4.36,1.77,8,8,0,0,0-2.74,3.94,9.64,9.64,0,0,0,.2,6.1,13.84,13.84,0,0,0,3.94,5.17c2.75,2.35,6.39,5.34,6.39,5.34s3.82-2,7.19-3.3a13.76,13.76,0,0,0,5.41-3.6A9.73,9.73,0,0,0,392.64,89.65Z" style="fill:#f5f5f5"></path><path d="M87.14,420.47c11,15,30.67,28.37,48,35.1s30.43,10,48.64,13.87c36.3,7.75,83.46,5.28,123.18-1.25s79.94-19,106.71-49Z" style="fill:#ebebeb"></path><path d="M379.68,421.38l-.53.45c-.38.29-.91.72-1.6,1.27-1.39,1.12-3.51,2.69-6.3,4.63s-6.31,4.18-10.53,6.55A156.45,156.45,0,0,1,346,441.51a188.3,188.3,0,0,1-40.92,12c-15.83,2.89-33.53,4.19-52.08,4.31s-36.26-.49-52.23-2.55A184.81,184.81,0,0,1,178.33,451a137.38,137.38,0,0,1-18.86-6.31,107.75,107.75,0,0,1-24.88-14.38c-2.67-2.11-4.65-3.87-5.94-5.1l-1.47-1.41c-.33-.32-.48-.5-.48-.5l.52.46,1.5,1.37c1.32,1.21,3.31,2.94,6,5a109.64,109.64,0,0,0,24.9,14.2,137.15,137.15,0,0,0,18.83,6.23,185.6,185.6,0,0,0,22.39,4.18c15.93,2,33.62,2.54,52.16,2.51s36.19-1.4,52-4.26a189.61,189.61,0,0,0,40.87-11.87A158.63,158.63,0,0,0,360.58,434c4.22-2.35,7.73-4.57,10.55-6.46s4.95-3.46,6.36-4.56l1.62-1.23C379.48,421.51,379.68,421.38,379.68,421.38Z" style="fill:#fff"></path><path d="M316.43,419s-.08.08-.27.22l-.81.59c-.71.52-1.8,1.24-3.23,2.13a75.64,75.64,0,0,1-12.81,6.19,103,103,0,0,1-20.43,5.26,171.08,171.08,0,0,1-25.78,1.88,231.12,231.12,0,0,1-25.82-1.1,88,88,0,0,1-20.59-4.6A56.58,56.58,0,0,1,194,423.11c-1.38-1-2.4-1.79-3.08-2.36l-.75-.67-.25-.23a1.44,1.44,0,0,1,.28.19l.79.63c.69.55,1.73,1.32,3.12,2.27a58.85,58.85,0,0,0,12.68,6.27,89.58,89.58,0,0,0,20.52,4.46,237.93,237.93,0,0,0,25.77,1.06,174.14,174.14,0,0,0,25.7-1.83,104.51,104.51,0,0,0,20.38-5.14,78.1,78.1,0,0,0,12.83-6c1.44-.85,2.55-1.54,3.28-2l.84-.55Z" style="fill:#fff"></path></g><g id="freepik--Floor--inject-2"><path d="M464.79,419.68c0,.14-97,.26-216.55.26s-216.57-.12-216.57-.26,96.94-.26,216.57-.26S464.79,419.53,464.79,419.68Z" style="fill:#263238"></path></g><g id="freepik--Dog--inject-2"><path d="M486.27,330.12A8,8,0,0,0,480.2,334c6.72-10.47,8.43-24.64,4.47-36.87-.78-2.37-1.94-4.89-4.08-5.82a3.51,3.51,0,0,0-4.06,1.27,35.48,35.48,0,0,0,.06-10.79c-.24-1.6-.68-3.33-1.89-4.28-1.67-1.32-4.14-.45-5.42,1.27s-1.69,4-2,6.22c-6.63-17-22-29.58-38.65-31.72-3.31-.43-7-.37-9.53,1.9s-3.05,7.43-.15,9.3c-3.14-1.15-6.43-2.2-9.69-1.77s-6.5,2.72-7.24,6.22c-1,4.54,2.46,8.85,6,11.52,4.83,3.62,10.35,5.93,15.48,9s10.07,7.22,12.45,13.07c3,7.46,1.25,16.2-2.12,23.35-6.29,13.37-18.11,23.39-31.54,26.72l10.94,24.17c13.84,9.44,51.32,1.75,62.22-11.13,1.72-2,3.32-4.55,3.15-7.35s-3-5.48-5.26-4.25C480.79,349,489.51,333.55,486.27,330.12Z" style="fill:#407BFF"></path><g style="opacity:0.6000000000000001"><path d="M402,268.9c-1,4.54,2.46,8.85,6,11.52,4.83,3.62,10.35,5.93,15.48,9a41.31,41.31,0,0,1,6.1,4.42c2.09-1.83,2.88-5.26,2.38-8.27-.57-3.46-2.45-6.49-4.28-9.4a28.55,28.55,0,0,0,8.71,7.42c1.23.67,2.65,1.25,3.93.74,2.07-.84,2.4-4,1.58-6.3s-2.4-4.21-3-6.56a27.06,27.06,0,0,0,6,4.59,8.22,8.22,0,0,0,7.06.48c2.56-1.19,4.17-4.15,4.49-7.19a12.38,12.38,0,0,0,.06-1.36c-7.58-8-17.47-13.42-27.86-14.75-3.31-.43-7-.37-9.53,1.9s-3.05,7.43-.15,9.3c-3.14-1.15-6.43-2.2-9.69-1.77S402.71,265.4,402,268.9Z" style="fill:#fff"></path></g><path d="M398,319.09l-29.64-16s-18.09-10.19-27.21-19.05c-16.19-15.73-20-29.39-20-29.39l-87.4,40.12L216,300.4c2.22,9.29,2.55,26.86,8.51,44.83,1.65,5,6.52,9.6,6.74,7.93.17-1.39,0,.92,0,.92,3.09,8.16,6.66,18.75,17.25,26.12,7.93,12,24.88,18.86,31.81,22.82,10.25,5.85,49.15,17.33,49.15,17.33l30.25,2.31,75.82-60.17S431,336.21,398,319.09Z" style="fill:#407BFF"></path><path d="M295.17,385.14c5.18,4.54,7.17,11.71,7.88,18.55s.39,13.84,2.11,20.5c-3.41-1-7.19,1.74-7.94,5.22s1.07,7.15,3.88,9.33a17.67,17.67,0,0,0,10,3.24c6,.33,12.47-1.34,16.59-5.77,3.78-4.06,5.1-9.75,6.6-15.1,2.56-9.16,6-18.06,8.64-27.2s4.41-18.7,3.49-28.17l2.58.9c3.19.93.14-9.76-3.05-14.57" style="fill:#407BFF"></path><path d="M345.93,352.07a10.33,10.33,0,0,1,.7,1.07,29.59,29.59,0,0,1,1.66,3.35,33.89,33.89,0,0,1,1.84,5.72,14.13,14.13,0,0,1,.29,1.82,5.21,5.21,0,0,1-.11,2,1.07,1.07,0,0,1-.78.8,1.65,1.65,0,0,1-.59,0l-.51-.18-2.08-.71.2-.17a60.43,60.43,0,0,1-.36,14.19,109.5,109.5,0,0,1-3.89,16.87c-1.79,6-4,12.21-6.12,18.83-1.07,3.3-2,6.73-3,10.21a27.2,27.2,0,0,1-4.82,9.95A19.14,19.14,0,0,1,316.21,442a27,27,0,0,1-6.72.08,19.19,19.19,0,0,1-6.31-1.76,11.89,11.89,0,0,1-4.77-4.19,9.36,9.36,0,0,1-1.55-5.91c.36-4.14,4.61-7.34,8.36-6.26l-.27.26c-1.51-6.1-1.44-11.86-1.78-16.86A47.8,47.8,0,0,0,301,394.62a23,23,0,0,0-3.88-7.31,17.69,17.69,0,0,0-1.46-1.63c-.35-.34-.53-.54-.53-.54a14.6,14.6,0,0,1,2.1,2.09,22.65,22.65,0,0,1,4,7.31,47.12,47.12,0,0,1,2.25,12.82c.37,5,.34,10.76,1.85,16.77l.09.37-.36-.1c-3.43-1-7.47,2-7.77,5.88a8.84,8.84,0,0,0,1.49,5.61,11.3,11.3,0,0,0,4.59,4,18.43,18.43,0,0,0,6.14,1.7,26,26,0,0,0,6.59-.08A18.64,18.64,0,0,0,328,435.44a26.78,26.78,0,0,0,4.72-9.77c1-3.45,1.91-6.91,3-10.21,2.1-6.63,4.36-12.87,6.17-18.81a109.38,109.38,0,0,0,3.93-16.8,61.17,61.17,0,0,0,.45-14.1l0-.24.23.08,2.08.73a2.07,2.07,0,0,0,1,.22.8.8,0,0,0,.56-.61,5,5,0,0,0,.12-1.88,16.36,16.36,0,0,0-.27-1.79,34.85,34.85,0,0,0-1.76-5.7,33.34,33.34,0,0,0-1.57-3.37c-.2-.36-.36-.63-.47-.84A1.75,1.75,0,0,1,345.93,352.07Z" style="fill:#263238"></path><path d="M309.21,427.52c0,.08-.74.41-1.83,1.18a12.28,12.28,0,0,0-5.22,8.61c-.18,1.32-.12,2.16-.2,2.17a5.28,5.28,0,0,1-.17-2.21,11.26,11.26,0,0,1,5.39-8.88A5.21,5.21,0,0,1,309.21,427.52Z" style="fill:#263238"></path><path d="M316.68,428c.05.07-.72.56-1.74,1.57a13.14,13.14,0,0,0-3.07,4.6,13.47,13.47,0,0,0-.9,5.47c.07,1.43.29,2.31.21,2.33a6,6,0,0,1-.57-2.31,12.07,12.07,0,0,1,4.08-10.37A5.86,5.86,0,0,1,316.68,428Z" style="fill:#263238"></path><path d="M242.8,376.05c3.23,6.74,6.84,12.44,7.54,19.28s.4,13.84,2.11,20.5c-3.41-1-7.18,1.75-7.93,5.22s1.06,7.16,3.87,9.34a17.79,17.79,0,0,0,10,3.23c6,.34,12.47-1.34,16.59-5.77,3.78-4.06,6.87-18.12,8-23.56" style="fill:#407BFF"></path><path d="M283,404.29a1.73,1.73,0,0,1,0,.3q-.06.33-.15.87c-.15.76-.37,1.89-.69,3.33a104.46,104.46,0,0,1-3.3,12c-.43,1.25-1,2.53-1.56,3.85a13.4,13.4,0,0,1-2.53,3.75,18.55,18.55,0,0,1-8.69,4.73,26.14,26.14,0,0,1-11,.31,17,17,0,0,1-5.49-2,11.29,11.29,0,0,1-4.22-4.29,9.52,9.52,0,0,1-1.22-4.27,7.14,7.14,0,0,1,1.14-4.21,7.55,7.55,0,0,1,3.2-2.76,6.58,6.58,0,0,1,2-.55,6.14,6.14,0,0,1,2.05.19l-.31.3c-1.47-5.89-1.44-11.56-1.76-16.54a43.19,43.19,0,0,0-.8-7,34,34,0,0,0-1.87-5.72c-1.44-3.38-2.82-6-3.68-7.78-.44-.91-.78-1.6-1-2.08-.1-.22-.18-.4-.24-.55s-.08-.18-.07-.19a1,1,0,0,1,.11.18c.07.14.16.31.28.52.25.5.61,1.18,1.06,2,.91,1.79,2.33,4.35,3.82,7.74a34.63,34.63,0,0,1,2,5.76,43.08,43.08,0,0,1,.85,7c.36,5,.36,10.64,1.82,16.45l.11.43-.42-.13c-2.44-.73-5.26.66-6.71,2.92a7.68,7.68,0,0,0,.11,7.95,10.87,10.87,0,0,0,4,4.1,16.39,16.39,0,0,0,5.32,1.94,25.78,25.78,0,0,0,10.74-.28,18.15,18.15,0,0,0,8.5-4.56,13,13,0,0,0,2.47-3.63,38.41,38.41,0,0,0,1.58-3.8,116,116,0,0,0,3.46-12q.5-2.12.78-3.3c.08-.36.15-.64.2-.86A1.32,1.32,0,0,1,283,404.29Z" style="fill:#263238"></path><path d="M256.51,419.16c0,.08-.74.41-1.84,1.18a12.33,12.33,0,0,0-5.22,8.61c-.18,1.33-.11,2.17-.2,2.17a5.25,5.25,0,0,1-.17-2.2,11.36,11.36,0,0,1,5.39-8.89A5.42,5.42,0,0,1,256.51,419.16Z" style="fill:#263238"></path><path d="M264,419.68c0,.07-.71.55-1.74,1.56a13.57,13.57,0,0,0-3.07,4.61,13.42,13.42,0,0,0-.89,5.46c.06,1.44.29,2.31.2,2.33a5.89,5.89,0,0,1-.57-2.3A12.07,12.07,0,0,1,262,421,5.76,5.76,0,0,1,264,419.68Z" style="fill:#263238"></path><path d="M290.41,407a5.07,5.07,0,0,1-.86-.2c-.55-.15-1.38-.35-2.42-.68a64.84,64.84,0,0,1-8.62-3.41,68.36,68.36,0,0,1-11.69-7.22,66.87,66.87,0,0,1-11.92-11.88c-.86-1.06-1.59-2.19-2.38-3.26l.43-.3a4,4,0,0,1,.8,1.65.81.81,0,0,1-.19.59.87.87,0,0,1-.51.26,2.59,2.59,0,0,1-.93-.05,8.33,8.33,0,0,1-3.09-1.35l0,0a34,34,0,0,1-9.33-9,54.26,54.26,0,0,1-5.18-8.92c-1.21-2.64-2-4.8-2.56-6.3-.27-.74-.44-1.33-.57-1.73a5.23,5.23,0,0,1-.17-.6,2.61,2.61,0,0,1,.25.57c.17.43.38,1,.66,1.7.56,1.48,1.43,3.62,2.69,6.22a55,55,0,0,0,5.23,8.81,34.16,34.16,0,0,0,9.25,8.85h0l0,0a8.15,8.15,0,0,0,2.87,1.24c.51.1,1.11.09,1-.26a3.54,3.54,0,0,0-.7-1.38l.42-.3c.78,1.06,1.51,2.18,2.37,3.23a67.6,67.6,0,0,0,11.79,11.82A69.1,69.1,0,0,0,287.19,406c1,.36,1.85.59,2.39.77A4.93,4.93,0,0,1,290.41,407Z" style="fill:#263238"></path><path d="M427.13,350.22,398.83,372c-8.32,1.19-14,6.88-19.67,13.06-7.47,8.1-5.78,16.21-8,24.31A30.21,30.21,0,0,1,369,414c-1.69,3.63-6.13,2.55-8.45,3.25-2.77.83-4,2.15-5.3,4.75a7.57,7.57,0,0,0,1.15,8.2c1.69,1.78,4.53,2.12,6.93,2.65,6.69,1.46,13.6,2.94,20.32,1.62s13.23-6.2,14.23-13A20.8,20.8,0,0,0,412.12,420a34.16,34.16,0,0,0,11.33-9.12c7-8.29,12.09-18.85,12.75-29.68S433.09,359.29,427.13,350.22Z" style="fill:#407BFF"></path><path d="M405,372a.68.68,0,0,1-.23-.08l-.65-.28a19.24,19.24,0,0,0-2.57-.92,22,22,0,0,0-9.88-.48,23.89,23.89,0,0,0-6.52,2.14,25.76,25.76,0,0,0-6.41,4.57A32.7,32.7,0,0,0,370,392.49a48.83,48.83,0,0,0-.81,18.05,7.85,7.85,0,0,1-.26,4.16,3.55,3.55,0,0,1-1.37,1.55,5.21,5.21,0,0,1-1.85.66c-1.26.22-2.48.2-3.61.33a8,8,0,0,0-3.09.95,8,8,0,0,0-4.15,8.28,9.45,9.45,0,0,0,1.23,3.42,4,4,0,0,1-.53-.79,7.92,7.92,0,0,1-.9-2.6,8.3,8.3,0,0,1,.41-4.32,8.49,8.49,0,0,1,7-5.34c1.17-.14,2.38-.13,3.58-.35a3.65,3.65,0,0,0,2.89-2,7.45,7.45,0,0,0,.19-3.92,48.7,48.7,0,0,1,.79-18.22,32.86,32.86,0,0,1,8.93-15.81,26.16,26.16,0,0,1,6.55-4.61,24,24,0,0,1,6.65-2.11,21.68,21.68,0,0,1,10,.64A15,15,0,0,1,405,372Z" style="fill:#263238"></path><path d="M362.22,432.13a4.31,4.31,0,0,1-1.08-1.93,7.68,7.68,0,0,1,3.71-9.28,4.15,4.15,0,0,1,2.12-.64c0,.08-.81.27-1.93,1a7.84,7.84,0,0,0-3.55,8.86C361.83,431.38,362.3,432.08,362.22,432.13Z" style="fill:#263238"></path><path d="M373,434.18a1.63,1.63,0,0,1-.61-.32,6,6,0,0,1-1.35-1.27,7.21,7.21,0,0,1,1.93-10.81,6.2,6.2,0,0,1,1.71-.73,1.54,1.54,0,0,1,.68-.08,17.11,17.11,0,0,0-2.19,1.12,7.15,7.15,0,0,0-1.84,10.28A18.12,18.12,0,0,0,373,434.18Z" style="fill:#263238"></path><path d="M436.2,381.18c-.1,0,.21-1.77.35-4.64a47.39,47.39,0,0,0,0-5,53.81,53.81,0,0,0-.77-6.1,56.26,56.26,0,0,0-3.22-10.7c-.54-1.33-1-2.4-1.35-3.12a6.25,6.25,0,0,1-.47-1.17,6.53,6.53,0,0,1,.65,1.08c.4.7.92,1.74,1.51,3.06a49.59,49.59,0,0,1,3.39,10.75,46.63,46.63,0,0,1,.74,6.18,41.17,41.17,0,0,1-.08,5.07,28.61,28.61,0,0,1-.44,3.4A6.77,6.77,0,0,1,436.2,381.18Z" style="fill:#263238"></path><path d="M375.06,344.56a2.6,2.6,0,0,1-.52-.37c-.33-.26-.79-.67-1.35-1.21a24.5,24.5,0,0,1-3.92-5.07l.41-.19a17.61,17.61,0,0,1,.88,7.56,17.28,17.28,0,0,1-.44,2.46l-.15.59-.32-.52c-2.08-3.35-3.9-6.32-5.18-8.47L363,336.81a5,5,0,0,1-.49-.95,4.31,4.31,0,0,1,.64.85l1.63,2.45c1.36,2.1,3.23,5,5.33,8.38l-.47.07a17.34,17.34,0,0,0,.42-2.38,17.89,17.89,0,0,0-.79-7.36l.42-.19a27.12,27.12,0,0,0,3.72,5.11C374.43,343.92,375.1,344.51,375.06,344.56Z" style="fill:#263238"></path><g style="opacity:0.30000000000000004"><path d="M374.9,380.18a38.54,38.54,0,0,0-11.33,19.1,18.78,18.78,0,0,1-1.94,5.78c-2.33,3.61-7.26,4.52-11.55,4.11l-11.61-1.07-4.09,12.62c7.49,1,20.6,1.57,20.6,1.57,1.77-3.64,4.39-5.35,8.26-5.46a15.82,15.82,0,0,0,3.22-.46,3.77,3.77,0,0,0,2.46-3.22,13.46,13.46,0,0,0-.39-4.27A38.71,38.71,0,0,1,374.9,380.18Z"></path></g><path d="M269.4,395.8l33.45,11.49.77,4.89S272,402.83,269.4,395.8Z" style="opacity:0.30000000000000004"></path><g style="opacity:0.6000000000000001"><path d="M305.11,260.66,218.28,306c5.6,30,15.83,48.41,39.17,68.08,2.47,2.08,13.18,9.39,16.14,10.69a12.54,12.54,0,0,0,9.42.61c3.8-1.46,6.23-5.17,7.9-8.88,4.64-10.26,5.33-21.79,5.95-33a16.45,16.45,0,0,1,3.29,7.45c6.72-9-5.24-39.86-4.66-51.07C296.5,280.37,308.7,279.86,305.11,260.66Z" style="fill:#fff"></path></g><path d="M218.37,306.24s-18-42.4-18.25-60.89,15.39-32.2,15.39-32.2a206.93,206.93,0,0,1,10.3-34.36c6.86-16.63,27.58-42.22,33.37-40.38s8.45,5,8.48,20,1.9,23.66,1.9,23.66,13.63,3,18,7.9c0,0,3.09-.28,6.92-3.62s31-27.08,38.79-21.44,5.14,32.62-.92,44.14-16,26.36-16.33,27.73,3.72,18.56,1.49,27.41-8.64,20-19.42,28.35-43,28.2-58.36,24.46S218.37,306.24,218.37,306.24Z" style="fill:#407BFF"></path><path d="M218.37,306.24s-18-42.4-18.25-60.89,15.39-32.2,15.39-32.2a206.93,206.93,0,0,1,10.3-34.36c6.86-16.63,27.58-42.22,33.37-40.38s8.45,5,8.48,20,1.9,23.66,1.9,23.66,13.63,3,18,7.9c0,0,3.09-.28,6.92-3.62s31-27.08,38.79-21.44,5.14,32.62-.92,44.14-16,26.36-16.33,27.73,3.72,18.56,1.49,27.41-8.64,20-19.42,28.35-43,28.2-58.36,24.46S218.37,306.24,218.37,306.24Z" style="fill:#fff;opacity:0.6000000000000001"></path><path d="M332.33,209.08c6.06-11.52,8.67-38.5.92-44.14S298.3,183,294.46,186.38s-6.92,3.62-6.92,3.62a10.23,10.23,0,0,0-1.56-1.4,62,62,0,0,0-12.27,12,41.18,41.18,0,0,0-8.37,20.28c-.34,3.31-.16,6.82,1.51,9.71,2.08,3.59,6.09,5.6,10.06,6.79,13.77,4.14,39.92-6,32.71,25.86,0,0-5.64,14.59-10.89,23.63-1.35,2.33-2.22,7.44-3,10,.9-.65,5.51.69,6.23.13,10.79-8.33,26.18-18.68,23.27-27.33-4.65-13.82-9.62-31.52-9.25-32.88S326.27,220.59,332.33,209.08Z" style="fill:#407BFF"></path><g style="opacity:0.6000000000000001"><path d="M331.44,170.18c-1.85-1.25-4.34-.59-6.38.31a65.73,65.73,0,0,0-27.36,23.18,54.87,54.87,0,0,0,9.15,29.77c.91,1.36,2.22,2.84,3.84,2.62a4.57,4.57,0,0,0,2.76-2.17c10.18-13.79,17.95-29.75,19.86-46.79C333.59,174.6,333.52,171.59,331.44,170.18Z" style="fill:#fff"></path></g><path d="M251.71,214.61c4.53-6.06,8.66-12.43,13.62-18.14A51.52,51.52,0,0,1,278.94,185a73.58,73.58,0,0,0-9.38-2.86s-1.87-8.6-1.9-23.66-2.7-18.2-8.48-20-26.51,23.75-33.37,40.38a201.66,201.66,0,0,0-9.24,29.55l.19.09c4.26,3,7.63,7.08,11.79,10.2s9.63,5.28,14.54,3.56C246.75,220.9,249.38,217.72,251.71,214.61Z" style="fill:#407BFF"></path><path d="M252.48,234a24.81,24.81,0,0,0-7.81-3.87c-1.72-.57-3.82-.94-5.17.27a3.74,3.74,0,0,0-.73,4.05,9.61,9.61,0,0,0,2.62,3.46,9.5,9.5,0,0,0,3.86,2.51c2.48.68,3.72.22,6-.94a12.75,12.75,0,0,0,2.9-2C254.78,236.87,254.87,235.25,252.48,234Z" style="fill:#263238"></path><path d="M263.13,246.49c-4.07,3.15-5.16,7.63-6.43,12.62s-2.16,10.21-4.92,14.55-8.07,7.61-13,6.14a10.66,10.66,0,0,1-6.17-5.38,18.79,18.79,0,0,1-1.89-8.12,29.89,29.89,0,0,1,9.58-23.09,14.61,14.61,0,0,1,4.06,1.24c1.14.76,7.56,4.58,12.23,3.44S263.13,246.49,263.13,246.49Z" style="fill:#407BFF"></path><path d="M241.93,262.93a8.08,8.08,0,0,1,0-2.65,20.43,20.43,0,0,1,1.68-6.18,20.83,20.83,0,0,1,3.46-5.4,8.15,8.15,0,0,1,2-1.76c.06.07-.69.75-1.71,2a24.39,24.39,0,0,0-3.26,5.37,23.65,23.65,0,0,0-1.79,6C242,261.92,242,262.93,241.93,262.93Z" style="fill:#263238"></path><path d="M270.42,241.88a2.28,2.28,0,0,1-.3.5,7.32,7.32,0,0,1-1.09,1.24,14.15,14.15,0,0,1-5.35,2.9,41.2,41.2,0,0,1-4.07,1.06,19.55,19.55,0,0,1-4.8.63,17.86,17.86,0,0,1-10.43-3.44,7.2,7.2,0,0,0-2.5-1.2c-.88-.18-1.83,0-2.79-.19a6.33,6.33,0,0,1-4.36-3.09,8.74,8.74,0,0,1-1.33-4.68,10.29,10.29,0,0,1,.92-4.14,11.1,11.1,0,0,1,3.9-4.65,9.77,9.77,0,0,1,1.47-.79,2.92,2.92,0,0,1,.54-.19s-.73.33-1.89,1.15a11.21,11.21,0,0,0-3.68,4.62,10.3,10.3,0,0,0-.83,4,8.49,8.49,0,0,0,1.3,4.43,5.91,5.91,0,0,0,4,2.84c.86.15,1.81,0,2.81.18a7.77,7.77,0,0,1,2.69,1.28,17.59,17.59,0,0,0,10.14,3.39,19.67,19.67,0,0,0,4.71-.57c1.47-.31,2.84-.62,4.05-1a14.48,14.48,0,0,0,5.32-2.69A20.09,20.09,0,0,0,270.42,241.88Z" style="fill:#263238"></path><g style="opacity:0.6000000000000001"><path d="M223.81,203.71a175.52,175.52,0,0,1,31.1-19.8,13.64,13.64,0,0,0,4.35-2.9c1.44-1.65,1.94-3.88,2.39-6,1.67-7.89,3.34-16.15,1.18-23.92-.76-2.73-2.49-5.72-5.32-5.93-1.79-.14-3.43.9-4.86,2-10.19,7.82-16.18,19.78-21.84,31.32-3.81,7.78-7.7,15.84-8.12,24.5" style="fill:#fff"></path></g><path d="M243.06,243.75a3.89,3.89,0,0,1-.95-2.69,4,4,0,0,1,.73-2.77c.16.06-.27,1.25-.21,2.74S243.21,243.68,243.06,243.75Z" style="fill:#263238"></path><g style="opacity:0.6000000000000001"><path d="M282.18,208.06a13.86,13.86,0,0,0-7,.32,3,3,0,0,0-2,1.51c-.47,1.25.68,2.51,1.8,3.24a15.59,15.59,0,0,0,7.12,2.42,6.72,6.72,0,0,0,2.68-.21,3.23,3.23,0,0,0,2-1.69,3.47,3.47,0,0,0-1-3.72,10.24,10.24,0,0,0-3.56-2" style="fill:#fff"></path></g><g style="opacity:0.6000000000000001"><path d="M248.49,197.39a13.81,13.81,0,0,0-7,.32,3,3,0,0,0-2.05,1.51c-.48,1.25.67,2.51,1.79,3.24a15.63,15.63,0,0,0,7.12,2.42,6.72,6.72,0,0,0,2.68-.21,3.25,3.25,0,0,0,2-1.69,3.49,3.49,0,0,0-1-3.72,10.15,10.15,0,0,0-3.56-2" style="fill:#fff"></path></g><path d="M250.52,161.14c.07.07-1.18,1.35-2.8,3.72a34.32,34.32,0,0,0-2.52,4.34A34.58,34.58,0,0,0,241.87,181a35.19,35.19,0,0,0-.12,5c.15,2.86.54,4.61.44,4.63a5.82,5.82,0,0,1-.33-1.22,14,14,0,0,1-.26-1.45c-.07-.57-.19-1.22-.22-1.94a31,31,0,0,1,0-5.09A32.51,32.51,0,0,1,244.77,169a30.9,30.9,0,0,1,2.65-4.34c.41-.6.84-1.1,1.2-1.54a13.46,13.46,0,0,1,1-1.1A5.71,5.71,0,0,1,250.52,161.14Z" style="fill:#263238"></path><path d="M279.8,225.34a4.52,4.52,0,1,1-4.42-4.61A4.51,4.51,0,0,1,279.8,225.34Z" style="fill:#263238"></path><path d="M245.39,213.33a4.52,4.52,0,1,1-4.42-4.61A4.52,4.52,0,0,1,245.39,213.33Z" style="fill:#263238"></path><path d="M330.52,177.78a4,4,0,0,1-.42.44l-1.25,1.2c-1.09,1-2.65,2.56-4.5,4.52a106,106,0,0,0-12.88,16.71l-.29.47-.18-.52c-.08-.25-.18-.52-.27-.79-.87-2.48-1.7-4.89-2.49-7.15l.47,0a42.51,42.51,0,0,0-3.84,15.94,44.24,44.24,0,0,0,.06,4.82,15,15,0,0,1,.09,1.74,1.52,1.52,0,0,1-.09-.44c0-.29-.12-.72-.18-1.28a38.77,38.77,0,0,1-.2-4.85,41.15,41.15,0,0,1,3.7-16.14l.26-.57.21.59,2.5,7.15.27.79-.46-.05a98.27,98.27,0,0,1,13.06-16.69c1.89-1.93,3.49-3.42,4.62-4.42.56-.5,1-.87,1.32-1.13A2.34,2.34,0,0,1,330.52,177.78Z" style="fill:#263238"></path><path d="M259.26,320.78a3.4,3.4,0,0,1,.13.84c.06.55.12,1.37.17,2.4a54.61,54.61,0,0,1-.37,8.61l-.05.39-.31-.25a35.91,35.91,0,0,1-8.36-9.23c-.24-.38-.46-.76-.68-1.13l.48-.19,2.61,10.8.19.78-.56-.57a25.3,25.3,0,0,1-4.92-7.08,22.41,22.41,0,0,1-.9-2.25,3.76,3.76,0,0,1-.22-.83,4.26,4.26,0,0,1,.35.78c.22.51.54,1.26,1,2.18a26.64,26.64,0,0,0,5,6.88l-.37.21c-.79-3.17-1.71-6.84-2.69-10.78l-.42-1.7.9,1.51c.22.37.44.74.67,1.11a36.87,36.87,0,0,0,8.19,9.16l-.36.15a62.48,62.48,0,0,0,.56-8.54c0-1,0-1.78,0-2.4A4.61,4.61,0,0,1,259.26,320.78Z" style="fill:#263238"></path></g><g id="freepik--Cat--inject-2"><path d="M107.73,404.63c-4.64,3.27-9.46,6.49-14.93,8s-11.79,1-16.19-2.56c-5.64-4.6-6.66-12.83-6-20.09,1.27-14.78,7.52-29.43,4.67-44a36.57,36.57,0,0,0-18.56-24.91,36.54,36.54,0,0,0-31-1.18c-6.13,2.65-11.87,7.73-12.6,14.36,2,6.16,11.17,11.25,17.26,13.41s12.86,4.52,15.9,10.22c2.64,4.95,1.64,10.94,1,16.52a98.36,98.36,0,0,0,1.08,28.4c1.3,7,3.48,14.11,8.19,19.47,7.36,8.38,19.59,10.89,30.68,9.7s21.56-5.48,32.24-8.67Z" style="fill:#407BFF"></path><g style="opacity:0.5"><path d="M74.39,351.31a28.71,28.71,0,0,0,1.12-3.74q-.12-.79-.27-1.59a36.57,36.57,0,0,0-18.56-24.91,36.54,36.54,0,0,0-31-1.18c-6.13,2.65-11.87,7.73-12.6,14.36,2,6.16,11.17,11.25,17.26,13.41s12.86,4.52,15.9,10.22c1.78,3.34,1.9,7.15,1.61,11a17.11,17.11,0,0,0,3.35.12C61.42,368.37,70.75,360.93,74.39,351.31Z" style="fill:#fff"></path></g><path d="M183.76,419.25c3-1.91,9.78-2.41,13.3-2.81s7.35.6,9.69,3.26,2.74,7.09.35,9.7c-2.73,3-8.92,2.94-13,2.94-11,0-17.43-.21-27.51,0" style="fill:#407BFF"></path><path d="M166.62,432.34a4.33,4.33,0,0,1,.77-.07l2.22-.09c1.92-.05,4.7-.11,8.14-.12l12.09,0c2.27,0,4.66,0,7.12,0a22.74,22.74,0,0,0,7.44-1.18,6.69,6.69,0,0,0,2.95-2.21,6.45,6.45,0,0,0,1.1-3.41,7.81,7.81,0,0,0-2.63-6.15,10.58,10.58,0,0,0-5.72-2.44,24.63,24.63,0,0,0-5.56.22,50.22,50.22,0,0,0-8,1.3,14.84,14.84,0,0,0-2.07.73,5.19,5.19,0,0,1-.7.33s.05-.05.16-.12.27-.18.49-.3a12.31,12.31,0,0,1,2.06-.84,45.69,45.69,0,0,1,8-1.46,24.4,24.4,0,0,1,5.65-.29,11,11,0,0,1,6,2.51,8.28,8.28,0,0,1,2.82,6.53,6.9,6.9,0,0,1-1.19,3.69,7.14,7.14,0,0,1-3.18,2.39,22.88,22.88,0,0,1-7.61,1.21c-2.49,0-4.87,0-7.15,0l-12.08-.14-8.14,0-2.22,0A5.14,5.14,0,0,1,166.62,432.34Z" style="fill:#263238"></path><path d="M141.82,273.12c0,1.34-8,20.78-27.82,36.53s-36.21,34.19-35.87,58.66S93.55,419.6,93.55,419.6l15.59,12.27,57.48.47s26.48-6.37,29.83-28.16S193.1,372,193.1,372l1-21.79s15.75-29.16,16.76-38.54-7.71-43.58-7.71-43.58Z" style="fill:#407BFF"></path><path d="M174,336.38a19.12,19.12,0,0,0-.33,6.48,22.71,22.71,0,0,0,2.08,6.73,36.87,36.87,0,0,0,4.67,7.29c1.95,2.4,4,4.56,5.75,6.56s3.37,3.86,4.57,5.51a33,33,0,0,1,2.61,4.06c.28.5.45.91.58,1.18s.18.42.16.43a13.55,13.55,0,0,1-.92-1.51,40.48,40.48,0,0,0-2.72-3.94c-1.23-1.61-2.82-3.42-4.63-5.4s-3.84-4.14-5.81-6.56a36.81,36.81,0,0,1-4.7-7.42,22.41,22.41,0,0,1-2-6.88,15.11,15.11,0,0,1,.2-4.83,8.6,8.6,0,0,1,.34-1.27A1.77,1.77,0,0,1,174,336.38Z" style="fill:#263238"></path><path d="M195.53,380.83a3.2,3.2,0,0,1,.25.6c.14.4.38,1,.6,1.77a39.55,39.55,0,0,1,1.39,6.7,42.39,42.39,0,0,1,0,10.16,37.4,37.4,0,0,1-1.17,5.91,33,33,0,0,1-2.29,6,33.91,33.91,0,0,1-3.42,5.49,37.14,37.14,0,0,1-4.08,4.43,39.62,39.62,0,0,1-8.33,5.83,40.49,40.49,0,0,1-6.3,2.68c-.76.27-1.37.42-1.78.54a2.76,2.76,0,0,1-.63.14,3.33,3.33,0,0,1,.6-.24c.4-.16,1-.33,1.75-.63a46.83,46.83,0,0,0,6.19-2.82,40.44,40.44,0,0,0,8.18-5.85,38.77,38.77,0,0,0,4-4.39,34,34,0,0,0,3.35-5.41,32.85,32.85,0,0,0,2.27-5.95A37.56,37.56,0,0,0,197.3,400a42.69,42.69,0,0,0,.1-10.07,41.94,41.94,0,0,0-1.22-6.69c-.18-.78-.39-1.37-.5-1.78A4.37,4.37,0,0,1,195.53,380.83Z" style="fill:#263238"></path><path d="M110.14,431.83a9.76,9.76,0,0,1-1.45-.62,17.66,17.66,0,0,1-1.65-.85c-.63-.36-1.37-.74-2.12-1.26s-1.61-1-2.46-1.69-1.74-1.38-2.67-2.15A43.54,43.54,0,0,1,90.1,413c-.54-1.08-1.07-2.1-1.47-3.1s-.78-1.92-1.08-2.78-.52-1.66-.73-2.35a18.53,18.53,0,0,1-.44-1.81,9.51,9.51,0,0,1-.27-1.55,8.61,8.61,0,0,1,.47,1.51c.12.49.29,1.09.52,1.77s.45,1.47.8,2.31.67,1.77,1.13,2.73,1,2,1.49,3a50.22,50.22,0,0,0,4.28,6.49,49.53,49.53,0,0,0,5.31,5.66c.91.78,1.75,1.54,2.61,2.16s1.65,1.23,2.4,1.74,1.45.92,2.06,1.31,1.15.68,1.6.92A8.7,8.7,0,0,1,110.14,431.83Z" style="fill:#263238"></path><path d="M136.86,362.79a6.26,6.26,0,0,1-1-.67c-.61-.46-1.48-1.17-2.53-2.11a47.39,47.39,0,0,1-7.45-8.59l.45-.21,1.92,6.17L129.7,362l.23.76-.63-.48a23.82,23.82,0,0,1-7.52-9.91,22,22,0,0,1-1.08-3.51c-.09-.42-.13-.75-.17-1s0-.34,0-.35a11,11,0,0,1,.36,1.27,25.54,25.54,0,0,0,1.22,3.43,24.19,24.19,0,0,0,7.52,9.63l-.4.28q-.69-2.22-1.43-4.61c-.67-2.16-1.31-4.25-1.91-6.17l-.5-1.65.95,1.43a51.31,51.31,0,0,0,7.24,8.64c1,1,1.85,1.71,2.43,2.21A6.75,6.75,0,0,1,136.86,362.79Z" style="fill:#263238"></path><g style="opacity:0.30000000000000004"><path d="M173.51,337.61c.14-1,1.74-1,2.29-.13a4.67,4.67,0,0,1,.33,2.88c-.34,5.76,3.25,11,7,15.37s7.9,8.86,9.1,14.5c-3-3.45-6.52-6.36-9.81-9.51s-6.39-6.64-8.18-10.83-2.13-9.2,0-13.21"></path></g><g style="opacity:0.30000000000000004"><path d="M173,430.05c4.6.17,9.35-.29,13.44-2.41s7.4-6.13,7.7-10.72l-3.45.15a37.75,37.75,0,0,1-17.26,12.59"></path></g><path d="M180.49,194.86s-25,3.88-30.34,6-27.22,13.44-30.66,24.22c0,0-1.71,12.15,3.66,27.1,1.95,5.45,17.82,23.89,21.59,26s59-7.7,59-7.7c3.32-4.5,12.87-20.14,12.79-31.86-.1-14.71-5.37-31.25-5.37-31.25Z" style="fill:#407BFF"></path><path d="M199.74,169.46c-.54-.09-7.18,0-12.23,11.43a164.44,164.44,0,0,1-10.71,20.2l34.5,8s-1.93-18.64-3.84-25.15S203.6,170.09,199.74,169.46Z" style="fill:#407BFF"></path><g style="opacity:0.6000000000000001"><path d="M189.08,240.4c-11.15-4.37-24-2.43-34.87,2.51-6.07,2.75-12,6.73-14.74,12.82-4.43,10,1.59,21.83,10,28.75s19,10.67,28.12,16.69,17.19,15.81,16,26.66l.54,22.3c.9-1.67,15.74-29.36,16.72-38.46.85-8-5.36-34.05-7.2-41.54.8-1,2.06-3.09,3.56-5.07C207.38,254.25,199.3,244.42,189.08,240.4Z" style="fill:#fff"></path></g><path d="M177.07,234h0" style="fill:#263238"></path><path d="M177.54,236.12a1.79,1.79,0,0,0-1.53-2.26,16.29,16.29,0,0,0-8.34,1.15,2.15,2.15,0,0,0-1.36,1.16,1.94,1.94,0,0,0,.56,1.74,6.27,6.27,0,0,0,10.49-1.33A3.66,3.66,0,0,0,177.54,236.12Z" style="fill:#263238"></path><path d="M178.42,248.56a4.61,4.61,0,0,1-3,1.86,4.54,4.54,0,0,1-3.52-.31,16.37,16.37,0,0,0,3.4-.19A16.62,16.62,0,0,0,178.42,248.56Z" style="fill:#263238"></path><path d="M120.12,227.36s-11.77-40.79-6.75-44.23,9.64.63,9.64.63L149,203.48Z" style="fill:#407BFF"></path><g style="opacity:0.6000000000000001"><path d="M123.37,219.12a46.24,46.24,0,0,1,17.15-14.46l-17.85-14a3.59,3.59,0,0,0-2.79-1.1,2.78,2.78,0,0,0-1.82,2.14c-.66,2.47,0,6.48.52,9,1.44,6.59,3,12.91,4.79,18.46" style="fill:#fff"></path></g><g style="opacity:0.6000000000000001"><path d="M205.39,203.76a44.72,44.72,0,0,0-20.79-5.89q5.06-9.69,10.1-19.38c.46-.89,1.05-1.87,2-2.07a2.67,2.67,0,0,1,2.44,1.15c1.57,1.91,2.59,5.68,3.11,8.1,1.35,6.35,2.51,12.5,3.12,18.09" style="fill:#fff"></path></g><path d="M208.77,261.93a3.89,3.89,0,0,1-.24.61c-.2.44-.46,1-.79,1.71a32,32,0,0,1-3.72,5.84,27.13,27.13,0,0,1-7.93,6.51c-.86.44-1.77.86-2.71,1.24a27.14,27.14,0,0,1-3,1,31.35,31.35,0,0,1-3.15.65,32.78,32.78,0,0,1-3.32.27,27.76,27.76,0,0,1-5.88-.45l.15-.49a22.18,22.18,0,0,1,7.29,5.05l.37.39h-.54a39,39,0,0,1-12.53-2,34.49,34.49,0,0,1-3.34-1.3c-.38-.17-.67-.32-.86-.41a1.28,1.28,0,0,1-.28-.17,10.33,10.33,0,0,1,1.19.45c.77.3,1.91.72,3.37,1.17a40.42,40.42,0,0,0,12.45,1.77l-.17.39a21.67,21.67,0,0,0-7.15-4.89l-2.23-.94,2.38.45a27.34,27.34,0,0,0,5.77.43c1.1,0,2.19-.15,3.25-.26a27.42,27.42,0,0,0,3.1-.64,26.86,26.86,0,0,0,2.92-.92c.92-.37,1.82-.78,2.67-1.21a27.39,27.39,0,0,0,7.87-6.32,35.23,35.23,0,0,0,3.82-5.69c.36-.68.65-1.23.87-1.66A3.6,3.6,0,0,1,208.77,261.93Z" style="fill:#263238"></path><path d="M193.71,324.8a5.79,5.79,0,0,1,.16,1.16c.07.75.14,1.84.22,3.18.15,2.69.28,6.4.34,10.5s0,7.81,0,10.5c0,1.34-.08,2.43-.13,3.18a4.93,4.93,0,0,1-.13,1.17,5.08,5.08,0,0,1-.08-1.17c0-.86,0-1.93,0-3.18,0-2.81-.07-6.46-.11-10.5s-.14-7.68-.19-10.48c0-1.26,0-2.32-.06-3.19A5,5,0,0,1,193.71,324.8Z" style="fill:#263238"></path><path d="M155.62,233.77a4.52,4.52,0,1,1-4.51-4.52A4.52,4.52,0,0,1,155.62,233.77Z" style="fill:#263238"></path><path d="M193.83,226.86a4.52,4.52,0,1,1-4.52-4.51A4.52,4.52,0,0,1,193.83,226.86Z" style="fill:#263238"></path><path d="M186.35,237.27a4.94,4.94,0,0,1-.1,1.55,11.31,11.31,0,0,1-1.41,4,4.9,4.9,0,0,1-.89,1.14,5.68,5.68,0,0,1-1.31.85,4.63,4.63,0,0,1-3.41.2,5.77,5.77,0,0,1-1.68-.8,14.81,14.81,0,0,1-1.55-1.12,17.41,17.41,0,0,1-2.79-2.89l.46-.09-.08.27a9.7,9.7,0,0,1-4.71,6.13,6,6,0,0,1-3.41.63,6.79,6.79,0,0,1-2.82-1,8.87,8.87,0,0,1-2.89-3.18,9.79,9.79,0,0,1-.48-1.06c-.09-.25-.13-.39-.11-.39s.25.5.77,1.35a8.89,8.89,0,0,0,2.91,3,6.29,6.29,0,0,0,2.67.93,5.64,5.64,0,0,0,3.14-.62,9.36,9.36,0,0,0,4.43-5.85l.07-.26.15-.5.31.41a18,18,0,0,0,2.7,2.8,15,15,0,0,0,1.49,1.1,5.19,5.19,0,0,0,1.55.76,4.42,4.42,0,0,0,5.17-1.92,12.29,12.29,0,0,0,1.52-3.83C186.27,237.82,186.31,237.27,186.35,237.27Z" style="fill:#263238"></path><g style="opacity:0.6000000000000001"><path d="M166.5,197.22l-6.34,1.2a21.64,21.64,0,0,0,2.75,7.48c.48.81,1.21,1.69,2.15,1.62a1.78,1.78,0,0,0,1.33-.89,4.3,4.3,0,0,0,.53-1.57A17.48,17.48,0,0,0,166.5,197.22Z" style="fill:#fff"></path></g><path d="M224.93,244a5.79,5.79,0,0,1-1.27-.26l-3.41-.85c-2.88-.71-6.88-1.58-11.35-2.3s-8.54-1.11-11.5-1.33l-3.5-.25a7.26,7.26,0,0,1-1.29-.14,5.74,5.74,0,0,1,1.29-.07c.83,0,2,0,3.52.09a105.86,105.86,0,0,1,22.92,3.64c1.44.4,2.59.74,3.38,1A6.22,6.22,0,0,1,224.93,244Z" style="fill:#263238"></path><path d="M228.39,235.82a6.49,6.49,0,0,1-1.35.05l-3.66,0c-3.1,0-7.37,0-12.09.09s-9,.37-12.08.56l-3.65.23a7.69,7.69,0,0,1-1.35,0,5.9,5.9,0,0,1,1.33-.23c.86-.11,2.1-.25,3.65-.4,3.08-.29,7.36-.58,12.09-.71s9-.06,12.11.07c1.54.06,2.8.13,3.66.2A7,7,0,0,1,228.39,235.82Z" style="fill:#263238"></path><path d="M228,255.67a8.43,8.43,0,0,1-1.29-.68c-.81-.48-2-1.15-3.46-2a121.71,121.71,0,0,0-11.78-5.7A125,125,0,0,0,199.12,243c-1.6-.47-2.91-.83-3.82-1.08a8,8,0,0,1-1.39-.43,7.2,7.2,0,0,1,1.44.24c.92.18,2.25.49,3.87.92a97.75,97.75,0,0,1,24.2,10.09c1.45.85,2.61,1.58,3.38,2.1A8,8,0,0,1,228,255.67Z" style="fill:#263238"></path><path d="M149.13,249.88a6.11,6.11,0,0,1-1.1.73L145,252.48c-2.6,1.57-6.16,3.79-10,6.39s-7.22,5.09-9.64,6.92L122.44,268a6.36,6.36,0,0,1-1.09.75,6.5,6.5,0,0,1,1-.91c.64-.56,1.59-1.35,2.77-2.31,2.37-1.91,5.73-4.45,9.58-7.06s7.45-4.79,10.1-6.28c1.33-.75,2.41-1.34,3.17-1.72A7.06,7.06,0,0,1,149.13,249.88Z" style="fill:#263238"></path><path d="M148.42,246.35a1.76,1.76,0,0,1-.42.24l-1.25.59-4.61,2.09c-3.89,1.77-9.26,4.25-15.12,7.1s-11.13,5.54-14.93,7.5l-4.5,2.33-1.23.62a1.7,1.7,0,0,1-.45.18,1.83,1.83,0,0,1,.4-.27l1.18-.71c1-.6,2.55-1.45,4.43-2.47,3.75-2.05,9-4.79,14.87-7.65s11.27-5.28,15.2-7c2-.85,3.57-1.51,4.68-1.95l1.28-.5A1.49,1.49,0,0,1,148.42,246.35Z" style="fill:#263238"></path><path d="M142.87,244.86a9.48,9.48,0,0,1-1.6.47c-1,.26-2.53.65-4.37,1.15-3.68,1-8.74,2.53-14.19,4.56s-10.28,4.2-13.72,5.85c-1.72.83-3.11,1.52-4.06,2a10.43,10.43,0,0,1-1.51.69,10.16,10.16,0,0,1,1.42-.87c.92-.54,2.28-1.27,4-2.15a133.61,133.61,0,0,1,28-10.43c1.86-.46,3.37-.8,4.42-1A12.24,12.24,0,0,1,142.87,244.86Z" style="fill:#263238"></path><path d="M196.52,184.9a4.23,4.23,0,0,1,.21,1c.09.69.19,1.68.25,2.92a41.66,41.66,0,0,1-.7,9.77l-.13.69-.35-.62c-.22-.38-.45-.8-.69-1.21l-3.57-6.35.42-.06a28.18,28.18,0,0,0-.77,5.6c-.05,1.37,0,2.16-.07,2.17a2,2,0,0,1-.1-.57,14,14,0,0,1-.1-1.6,24,24,0,0,1,.6-5.7l.13-.57.29.51,3.62,6.31.69,1.22-.48.08a48.49,48.49,0,0,0,.86-9.66C196.6,186.41,196.44,184.91,196.52,184.9Z" style="fill:#263238"></path><path d="M131,207.21a33.91,33.91,0,0,0-4.32-5.26l.39-.14c-.18,1.7-.39,3.6-.61,5.63,0,.27-.06.54-.09.79l-.1.94-.39-.86c-1.35-3-2.54-5.66-3.37-7.6a23.92,23.92,0,0,1-1.25-3.17,21.53,21.53,0,0,1,1.58,3c.91,1.9,2.15,4.56,3.51,7.54l-.49.08.09-.8c.23-2,.46-3.93.66-5.62l0-.47.34.33a20.65,20.65,0,0,1,3.13,3.89A6.53,6.53,0,0,1,131,207.21Z" style="fill:#263238"></path></g><g id="freepik--Hearts--inject-2"><path d="M232,96.72a23.32,23.32,0,0,0-9.28-10.5,22.37,22.37,0,0,0-13.23-3.65A18.09,18.09,0,0,0,193,97.05a18.06,18.06,0,0,0-21.15-2.82,22.39,22.39,0,0,0-9.22,10.16,23.3,23.3,0,0,0-2.22,13.84A28.41,28.41,0,0,0,168.62,134c4.61,4.27,10.84,7,16.91,8.6,10.2,2.72,23.53,5.95,23.53,5.95s7.57-10,14.74-17.78c4.27-4.61,8.08-10.24,9.68-16.31A28.37,28.37,0,0,0,232,96.72Z" style="fill:#407BFF"></path><path d="M329.2,137.39a12.12,12.12,0,0,0,0-7.25,11.68,11.68,0,0,0-3.89-6,9.55,9.55,0,0,0-7.23-1.82,9.45,9.45,0,0,0-4.15,1.78,9.35,9.35,0,0,0-1.24-3.92,9.53,9.53,0,0,0-6-4.43,11.61,11.61,0,0,0-7.06.79,12.06,12.06,0,0,0-5.6,4.61,14.65,14.65,0,0,0-2.21,9,20.7,20.7,0,0,0,3.61,9.13c3,4.55,7.1,10.38,7.1,10.38s6.38-1.3,11.82-1.85a20.74,20.74,0,0,0,9.34-3A14.61,14.61,0,0,0,329.2,137.39Z" style="fill:#407BFF"></path></g></svg>
