<svg xmlns="http://www.w3.org/2000/svg" viewBox="0 0 500 500"><g id="freepik--background-complete--inject-3"><path d="M463.51,153.78s0-.08,0-.22,0-.37,0-.63c0-.57,0-1.37,0-2.39,0-2.11,0-5.13-.08-8.94l.15.14-47.62.1c.11-.11-.25.23.24-.24h0v6.17q0,3,0,6l-.23-.23,33.94.1,10,.07,2.71,0h.71l.25,0h-.22l-.68,0-2.66,0-10,.06-34.1.11h-.24v-6.22c0-1,0-2,0-3.07v-3.1h0c.49-.47.14-.13.25-.23l47.62.09h.15v.14c0,3.85-.06,6.9-.08,9,0,1,0,1.8,0,2.37,0,.24,0,.44,0,.6S463.52,153.78,463.51,153.78Z" style="fill:#e0e0e0"></path><path d="M70.66,392.76s-6.11-42-5.6-66.45,0-51.94,0-51.94h2.82s-1.91,48.52.17,77.78,7.53,40.61,7.53,40.61H70.66" style="fill:#e0e0e0"></path><path d="M88.86,227.11a7.4,7.4,0,0,0-2.56-3.76c-1.79-1.13-4.13-.66-6.12.05-8.51,3-16.05,18.87-19.49,27.21L72,288.67C92.37,269.75,95.9,244.94,88.86,227.11Z" style="fill:#ebebeb"></path><path d="M85.64,224.89a2.42,2.42,0,0,1-.16.5c-.15.36-.33.82-.56,1.39-.49,1.19-1.19,2.94-2,5.1-1.66,4.32-3.78,10.36-5.67,17.17s-3.19,13.08-4,17.64c-.4,2.28-.71,4.13-.9,5.41q-.15.9-.24,1.47a1.8,1.8,0,0,1-.12.51,3.37,3.37,0,0,1,0-.52l.15-1.48c.14-1.29.39-3.15.75-5.45a162.13,162.13,0,0,1,9.69-34.87c.87-2.15,1.61-3.88,2.16-5,.25-.55.46-1,.63-1.36A2.47,2.47,0,0,1,85.64,224.89Z" style="fill:#e0e0e0"></path><path d="M67,297.79c-10.58-5.85-16.82-16.85-17.4-28.93-.41-8.45,2.18-16.74,5.12-24.66a3.19,3.19,0,0,1,1.2-1.79c.89-.51,2-.06,2.89.45,7.69,4.38,12.35,12.73,14.83,21.23a42.87,42.87,0,0,1,1.74,17.45A29,29,0,0,1,67,297.79" style="fill:#e0e0e0"></path><path d="M67,297.79a2.6,2.6,0,0,1,0-.51c0-.39,0-.87,0-1.46,0-1.27-.06-3.1-.16-5.37a148.06,148.06,0,0,0-2-17.58c-1.17-6.81-2.6-12.92-3.65-17.33-.52-2.16-.94-3.92-1.25-5.22-.13-.58-.24-1-.33-1.43a1.71,1.71,0,0,1-.08-.5,2.12,2.12,0,0,1,.17.48c.11.37.25.83.41,1.4.35,1.22.83,3,1.4,5.19,1.13,4.4,2.61,10.5,3.79,17.34a128.8,128.8,0,0,1,1.84,17.64c.06,2.27.06,4.11,0,5.38,0,.59,0,1.08-.06,1.46A1.69,1.69,0,0,1,67,297.79Z" style="fill:#ebebeb"></path><path d="M78.91,362.06c10.42,2.29,19,9.64,29.05,13.22,6.65,2.36,14.17,3.2,19.48,7.85-1.28-3.22-4.3-5.36-7.23-7.2a130.41,130.41,0,0,0-26.33-12.57c-4.73-1.63-9.86-3-14.68-1.65" style="fill:#ebebeb"></path><path d="M63.84,371.35c-13-.21-26.78-11.32-39.77-12,13.59-4.38,33.05-.8,39.77,12" style="fill:#ebebeb"></path><path d="M68.94,340.05c6.63-2.39,13.9-2.51,20.86-1.42s13.68,3.31,20.37,5.53c-.67-4.53-4.34-7.93-7.78-10.94a54.58,54.58,0,0,0-8.18-6.29,18.24,18.24,0,0,0-9.81-2.77,15.51,15.51,0,0,0-10.82,5.46,18,18,0,0,0-4.64,10.43" style="fill:#ebebeb"></path><path d="M42.16,325.64c-8.21-7-20.65-6.33-31.45-6.09A256.57,256.57,0,0,1,59.49,350C59.93,342.32,52.54,334.5,42.16,325.64Z" style="fill:#ebebeb"></path><path d="M72.64,316a91.5,91.5,0,0,1,12.63-7.34c4.32-2,8.36-5.1,12.53-7.36,5.42-2.93,10.11-7,15.08-10.64s10.42-6.92,16.51-7.88a32.59,32.59,0,0,0-15,.87,96.88,96.88,0,0,0-14.14,5.5C93.81,292,87.29,295,82.06,299.64S72.08,309,72.64,316" style="fill:#ebebeb"></path><path d="M107.72,371.35a1.87,1.87,0,0,1-.41-.18l-1.14-.59c-1-.52-2.4-1.3-4.17-2.19-.88-.47-1.86-.95-2.91-1.45s-2.19-1-3.39-1.55a49.75,49.75,0,0,0-8-2.8,17.17,17.17,0,0,0-8.37-.21,23.78,23.78,0,0,0-3.54,1.06,17.48,17.48,0,0,0-2.87,1.47,18.39,18.39,0,0,0-3.59,3c-.76.81-1.13,1.3-1.16,1.28a1.93,1.93,0,0,1,.23-.38c.17-.25.43-.59.79-1a17.08,17.08,0,0,1,3.56-3.13,17.74,17.74,0,0,1,2.89-1.55A24,24,0,0,1,79.19,362a17.39,17.39,0,0,1,8.58.18,46.51,46.51,0,0,1,8.1,2.86c1.21.53,2.34,1.06,3.39,1.6s2,1,2.89,1.5c1.76.93,3.15,1.75,4.11,2.32l1.09.67C107.6,371.24,107.73,371.33,107.72,371.35Z" style="fill:#e0e0e0"></path><path d="M54.11,364.88a3.22,3.22,0,0,1,.82.24,19.43,19.43,0,0,1,2.12.92A25.77,25.77,0,0,1,68,376.52a19.43,19.43,0,0,1,1,2.08,3.13,3.13,0,0,1,.27.81c-.08,0-.57-1.07-1.57-2.73A28.86,28.86,0,0,0,56.9,366.33C55.21,365.4,54.08,365,54.11,364.88Z" style="fill:#e0e0e0"></path><path d="M25.24,325a3.88,3.88,0,0,1,.56.17l1.56.56,2.47.91c1,.35,2,.88,3.19,1.4a75.4,75.4,0,0,1,17,10.83,81.54,81.54,0,0,1,7.92,7.8,85.52,85.52,0,0,1,5.62,7.12c1.49,2.11,2.62,3.87,3.4,5.08.36.58.66,1,.89,1.4a3,3,0,0,1,.29.51,3.21,3.21,0,0,1-.37-.45c-.22-.31-.56-.76-1-1.36-.82-1.18-2-2.91-3.51-5s-3.43-4.48-5.68-7a88.31,88.31,0,0,0-7.9-7.73,79.33,79.33,0,0,0-16.83-10.88c-1.17-.54-2.2-1.08-3.15-1.46l-2.43-1-1.53-.63A2.42,2.42,0,0,1,25.24,325Z" style="fill:#e0e0e0"></path><path d="M88.52,332.71a4.89,4.89,0,0,1-1-.13l-1.2-.22c-.46-.09-1-.1-1.6-.16a16.47,16.47,0,0,0-9,1.77,16.3,16.3,0,0,0-4.08,3A18.62,18.62,0,0,0,69,340.24a27.12,27.12,0,0,0-1.8,3.43,4.07,4.07,0,0,1,.27-1,14.51,14.51,0,0,1,1.25-2.58,17.21,17.21,0,0,1,2.6-3.37,15.73,15.73,0,0,1,4.16-3.14,16,16,0,0,1,9.22-1.69c.6.09,1.15.11,1.62.23l1.19.3A4.57,4.57,0,0,1,88.52,332.71Z" style="fill:#e0e0e0"></path><path d="M101.64,292a3.66,3.66,0,0,1-.5.3l-1.45.79c-1.27.69-3.09,1.69-5.31,3s-4.79,2.94-7.55,4.91a63.16,63.16,0,0,0-8.44,7.07,21.83,21.83,0,0,0-3.46,4.47c-.85,1.64-1.67,3.23-2.42,4.75a84.34,84.34,0,0,0-3.62,8.26,50,50,0,0,0-1.77,5.81c-.33,1.39-.45,2.18-.5,2.17a3,3,0,0,1,0-.57c0-.38.13-.93.28-1.64a42.16,42.16,0,0,1,1.63-5.88,76.72,76.72,0,0,1,3.55-8.33c.74-1.54,1.55-3.13,2.4-4.78a21.86,21.86,0,0,1,3.52-4.58,61,61,0,0,1,8.53-7.1c2.79-2,5.41-3.56,7.64-4.85s4.09-2.23,5.38-2.87l1.5-.71A2.08,2.08,0,0,1,101.64,292Z" style="fill:#e0e0e0"></path><path d="M65.05,331.54a5,5,0,0,1-.26-1.1c-.15-.81-.35-1.82-.57-3a85.8,85.8,0,0,0-2.47-9.79A85.14,85.14,0,0,0,58,308.24c-.5-1.11-.93-2.05-1.27-2.79a5.06,5.06,0,0,1-.42-1.05,4.9,4.9,0,0,1,.58,1c.35.64.84,1.57,1.41,2.73a68,68,0,0,1,3.87,9.39,67.29,67.29,0,0,1,2.35,9.87c.21,1.29.35,2.33.43,3.05A5.58,5.58,0,0,1,65.05,331.54Z" style="fill:#e0e0e0"></path><path d="M64.1,301.85a35.3,35.3,0,0,0-4.24-14.09,46.5,46.5,0,0,0-31.52-23.5l29.18,43.49,3.77,7.76C63.86,311.29,64.43,306.78,64.1,301.85Z" style="fill:#ebebeb"></path><rect x="38.11" y="387.56" width="67.85" height="12.03" style="fill:#ebebeb"></rect><polygon points="43.17 397.2 48.95 434.52 94 434.52 100.89 397.2 43.17 397.2" style="fill:#ebebeb"></polygon><path d="M105.92,399.6c0,.14-15.3.24-34.18.24s-34.18-.1-34.18-.24,15.3-.23,34.18-.23S105.92,399.47,105.92,399.6Z" style="fill:#e0e0e0"></path><path d="M240.49,234.48c-2.75-6.37-2.11-13.9.82-20.19A20.05,20.05,0,0,1,223.09,218c-6.18-1.85-12.71-7.71-14.59-13.88-1.76,14.36-13.68,27.79-27.07,33.28a27.83,27.83,0,0,1,3.34,29.13c6.62-1.45,13.62,1.54,18.42,6.32s7.72,11.11,10,17.49a27.28,27.28,0,0,1,26.1-11.69c-1.07-6.37,1-12.94,4.5-18.39s8.16-10,12.82-14.42C249.65,245.74,243.24,240.85,240.49,234.48Z" style="fill:#ebebeb"></path><rect x="332.42" y="54.73" width="110.06" height="182.19" style="fill:#e0e0e0"></rect><rect x="328.76" y="54.73" width="110.06" height="182.19" style="fill:#ebebeb"></rect><rect x="333.44" y="58.42" width="100.69" height="174.8" style="fill:#fafafa"></rect><rect x="352.61" y="81.13" width="61.92" height="129.37" style="fill:#ebebeb"></rect><path d="M352.61,164.72c-.14-12.08,10.72-23.88,22.69-25.57,5.71-.8,11.77.33,17.1-1.85,9.52-3.91,12.55-16.55,22.13-20.3l.43,93.5H352.61Z" style="fill:#e0e0e0"></path><rect x="235.11" y="144.61" width="47.62" height="12.18" style="fill:#ebebeb"></rect><path d="M262.59,169.61a2,2,0,0,1,0-.22c0-.16,0-.37,0-.63,0-.57,0-1.37,0-2.39,0-2.1,0-5.13-.09-8.94l.15.15-47.62.09.24-.24h0v6.17c0,2,0,4,0,6l-.23-.23,33.94.1,10,.07,2.71,0h.71a1.27,1.27,0,0,1,.25,0h-.22l-.68,0-2.66,0-10,.06-34.1.11h-.24v-6.22c0-1,0-2,0-3.07v-3.1h0c.49-.47.14-.13.25-.23l47.62.09h.15v.14c0,3.85-.06,6.9-.08,9,0,1,0,1.8,0,2.37,0,.24,0,.44,0,.6S262.6,169.61,262.59,169.61Z" style="fill:#e0e0e0"></path><path d="M458.94,261.62s0-.08,0-.22,0-.37,0-.63c0-.57,0-1.37,0-2.39,0-2.1-.05-5.13-.08-8.94l.14.14-47.62.1c.11-.11-.24.23.24-.24h0v12.16l-.24-.23,33.94.1,10,.07,2.7,0h.71l.25,0h-.22l-.68,0-2.65,0-10,.06-34.1.11h-.24V249.46h0c.48-.47.13-.13.24-.23l47.62.09h.15v.14c0,3.85-.06,6.9-.08,9,0,1,0,1.8,0,2.37,0,.24,0,.44,0,.6S459,261.62,458.94,261.62Z" style="fill:#e0e0e0"></path><path d="M271.44,61.55a1,1,0,0,1,0-.22c0-.16,0-.37,0-.62,0-.58,0-1.37,0-2.4,0-2.1-.05-5.12-.08-8.93l.15.14-47.63.09.24-.23h0V61.55l-.24-.23,33.94.11,10,.06,2.71,0,.7,0h.26a.94.94,0,0,1-.23,0h-.67l-2.66,0-10,.07-34.1.1h-.24V49.4h0l.24-.24,47.63.09h.14v.15c0,3.84-.06,6.89-.08,9,0,1,0,1.79,0,2.36,0,.25,0,.44,0,.6S271.44,61.56,271.44,61.55Z" style="fill:#e0e0e0"></path><path d="M439.53,54.55s0-.08,0-.23,0-.36,0-.62c0-.57,0-1.36,0-2.39,0-2.09,0-5.1-.08-8.9l.14.14-45.56.1c.1-.11-.24.23.23-.24h0v6.15c0,2,0,4,0,6l-.22-.22,32.47.1,9.58.07,2.6,0h.67l.24,0h-.86l-2.54,0-9.53.07-32.63.1h-.23v-.23c0-1.95,0-3.94,0-6V42.43h0c.47-.47.13-.13.24-.23l45.56.09h.15v.14c0,3.83-.06,6.87-.08,9,0,1,0,1.79,0,2.35,0,.25,0,.45,0,.6A.8.8,0,0,1,439.53,54.55Z" style="fill:#e0e0e0"></path><path d="M445.71,42.41a2.07,2.07,0,0,1,0-.23c0-.17,0-.38,0-.64,0-.6,0-1.41,0-2.44,0-2.12-.06-5.13-.09-8.82l.16.17-27.37.06.23-.23h0v3.14c0,1,0,2.07,0,3.09,0,2,0,4,0,5.88l-.22-.22,19.59.1,5.7.07,1.54,0,.55,0a2.83,2.83,0,0,1-.49,0l-1.5,0-5.65.06-19.74.1h-.22v-.23c0-1.88,0-3.85,0-5.88V30.3h0l.24-.24,27.37.07h.17v.17c0,3.74-.07,6.77-.09,8.93,0,1,0,1.8,0,2.39A6,6,0,0,1,445.71,42.41Z" style="fill:#e0e0e0"></path><path d="M256.66,364a1.12,1.12,0,0,1,0-.22c0-.16,0-.37,0-.62,0-.58,0-1.37,0-2.39,0-2.1,0-5.11-.07-8.91l.14.15-45.57.09.23-.24h0V364l-.23-.23,32.47.1,9.59.07,2.59,0h.68l.24,0h-.21l-.65,0-2.55,0-9.53.06-32.63.11h-.23V351.86h0l.23-.23,45.57.09h.14v.14c0,3.84-.06,6.88-.08,9,0,1,0,1.79,0,2.36,0,.24,0,.44,0,.6A1.31,1.31,0,0,1,256.66,364Z" style="fill:#e0e0e0"></path><path d="M262.84,351.85a.6.6,0,0,1,0-.23c0-.17,0-.38,0-.64,0-.6,0-1.41,0-2.43,0-2.13-.05-5.13-.09-8.83l.17.17-27.38.06.23-.23h0V346c0,2,0,4,0,5.88l-.22-.22,19.58.11,5.71.06,1.54,0,.55,0a2.9,2.9,0,0,1-.5,0l-1.49,0-5.66.06-19.73.11h-.22v-.23c0-1.88,0-3.85,0-5.88v-3.09c0-.52,0-1,0-1.57v-1.57h0l.24-.23,27.38.06H263v.17c0,3.74-.06,6.78-.09,8.93,0,1,0,1.81,0,2.4A7.39,7.39,0,0,1,262.84,351.85Z" style="fill:#e0e0e0"></path><path d="M80.42,128s0-.08,0-.22,0-.37,0-.62c0-.57,0-1.37,0-2.39,0-2.1,0-5.11-.08-8.9l.14.14-45.56.09c.1-.1-.24.23.22-.23h0V128l-.23-.23,32.48.11,9.58.06,2.59,0h.68a1.1,1.1,0,0,1,.24,0h-.21l-.65,0-2.54,0-9.54.06-32.63.11h-.22V128c0-2,0-3.94,0-6v-6.14h0l.24-.24,45.56.09h.14v.15c0,3.83-.06,6.87-.08,9,0,1,0,1.8,0,2.36,0,.24,0,.44,0,.6S80.43,128,80.42,128Z" style="fill:#e0e0e0"></path><path d="M86.6,115.87a1.3,1.3,0,0,1,0-.23c0-.18,0-.39,0-.65,0-.59,0-1.41,0-2.43,0-2.13,0-5.13-.09-8.83l.17.17L59.22,104l.23-.24h0V110c0,2,0,4,0,5.89l-.22-.23,19.59.11,5.7.06,1.54,0,.55,0a4.33,4.33,0,0,1-.5,0l-1.49,0L79,116l-19.74.11H59v-.22C59,114,59,112,59,110v-6.24h0l.23-.23,27.38.06h.17v.16c0,3.74-.07,6.78-.09,8.93,0,1,0,1.81,0,2.4S86.61,115.88,86.6,115.87Z" style="fill:#e0e0e0"></path><path d="M321,430.66a4.3,4.3,0,0,1-1.17-.17,3.7,3.7,0,0,1-2.84-3.58V383.26h1v43.65a2.75,2.75,0,0,0,2.09,2.65,3,3,0,0,0,3.29-1.14L354.85,383l.87.53L324.3,429A3.94,3.94,0,0,1,321,430.66Z" style="fill:#e0e0e0"></path><path d="M445.82,430.66a3.94,3.94,0,0,1-3.28-1.71l-31.42-45.43L412,383l31.43,45.43a3,3,0,0,0,3.29,1.14,2.76,2.76,0,0,0,2.09-2.65V383.26h1v43.65a3.71,3.71,0,0,1-2.84,3.58A4.36,4.36,0,0,1,445.82,430.66Z" style="fill:#e0e0e0"></path><rect x="302.97" y="269.57" width="161.37" height="118.22" style="fill:#ebebeb"></rect><path d="M455,322.92s0-.26,0-.76,0-1.24,0-2.2c0-1.95,0-4.8-.05-8.5,0-7.39-.05-18.14-.1-31.62l.19.17-143,.08h0l.29-.25c0,15,0,29.5,0,43.08l-.28-.24,102.3.11,29.87.07,8,0,2.08,0H455l-.68,0h-2l-8,0-29.81.07L312,323.17h-.27v-.25c0-13.58,0-28.11,0-43.08v-.25H312l143,.08h.19v.17c0,13.52-.08,24.31-.11,31.72,0,3.68,0,6.52,0,8.46,0,1,0,1.67,0,2.18S455,322.92,455,322.92Z" style="fill:#e0e0e0"></path><path d="M455,374s0-.27,0-.76,0-1.25,0-2.21c0-1.94,0-4.8-.05-8.49,0-7.4-.05-18.15-.1-31.63l.19.17-143,.09h0l.29-.26c0,15,0,29.5,0,43.08l-.28-.24,102.3.11,29.87.07,8,0,2.08,0c.47,0,.72,0,.72,0h-.68l-2,0-8,0-29.81.07L312,374.26h-.27V374c0-13.58,0-28.1,0-43.08v-.25H312l143,.09h.19v.16c0,13.53-.08,24.31-.11,31.73,0,3.68,0,6.52,0,8.45,0,.95,0,1.68,0,2.18S455,374,455,374Z" style="fill:#e0e0e0"></path><polygon points="354.17 279.58 358.81 284.03 412.06 284.03 417.35 279.58 354.17 279.58" style="fill:#e0e0e0"></polygon><polygon points="354.36 330.68 359.01 335.12 412.25 335.12 417.55 330.68 354.36 330.68" style="fill:#e0e0e0"></polygon></g><g id="freepik--Floor--inject-3"><path d="M478.65,434.36c0,.15-102.38.26-228.64.26s-228.66-.11-228.66-.26,102.36-.26,228.66-.26S478.65,434.22,478.65,434.36Z" style="fill:#263238"></path></g><g id="freepik--Shelf--inject-3"><rect x="87.13" y="86.86" width="159.33" height="13.45" style="fill:#ae7461"></rect><path d="M239.86,79.87A7.84,7.84,0,0,1,252,74.78a13.09,13.09,0,0,1-11.81,5.06" style="fill:#455a64"></path><path d="M241.6,81.39c1.1,2,.39,4.55-1.12,6.23a14.13,14.13,0,0,1-5.75,3.4,10.19,10.19,0,0,1,6.91-10.24" style="fill:#455a64"></path><path d="M236.24,72.11a9.06,9.06,0,0,1-11.86,5.5A12.37,12.37,0,0,1,229.23,72c2.22-1.18,5.25-1.1,7,.74" style="fill:#455a64"></path><path d="M236.85,69.7a5.33,5.33,0,0,1,5.61-2.83,9.25,9.25,0,0,1,5.61,3.48,8.15,8.15,0,0,1-11-1.47" style="fill:#455a64"></path><path d="M243.78,90.71a7.27,7.27,0,0,1,0,7.92,12.85,12.85,0,0,1-6.59,5,16.92,16.92,0,0,1,.91-8.21,8.6,8.6,0,0,1,6-5.26" style="fill:#455a64"></path><path d="M238.61,63.72a6.55,6.55,0,0,0-10-3,5.66,5.66,0,0,0,9.88,2.59" style="fill:#455a64"></path><path d="M237.54,56.9a8.5,8.5,0,0,0,12.08-4,20.14,20.14,0,0,0-5-1.1,8.38,8.38,0,0,0-4.93,1.14,4.49,4.49,0,0,0-2.14,4" style="fill:#455a64"></path><path d="M233.13,54.16a6.94,6.94,0,0,0,2.49-10.43,14.58,14.58,0,0,0-4.44,5.61,5.49,5.49,0,0,0-.59,2.62A2.47,2.47,0,0,0,232,54.1" style="fill:#455a64"></path><path d="M221.28,67.39s0-.06,0-.17.05-.3.09-.5c.07-.45.18-1.1.36-1.93a17.55,17.55,0,0,1,2.74-6.6A10.77,10.77,0,0,1,228.18,55a7.56,7.56,0,0,1,5.45-.67,6.57,6.57,0,0,1,2.67,1.38,5.78,5.78,0,0,1,1.69,2.6,11.55,11.55,0,0,1-.21,6.6,46.48,46.48,0,0,0-1.71,6.6,10.82,10.82,0,0,0,.1,3.27,6.64,6.64,0,0,0,1.29,2.87,9.33,9.33,0,0,0,2.27,1.93,14,14,0,0,1,2.18,1.68,9,9,0,0,1,2.38,4.24,8.62,8.62,0,0,1,0,4,9.24,9.24,0,0,1-1.17,2.83,11.38,11.38,0,0,1-1.69,2,.54.54,0,0,0,.15-.11c.08-.07.22-.17.38-.33a8.66,8.66,0,0,0,1.27-1.52,9.32,9.32,0,0,0,1.25-2.86,8.82,8.82,0,0,0,0-4.13A9.32,9.32,0,0,0,242.11,81c-1.26-1.35-3.17-2.06-4.41-3.61a8,8,0,0,1-1.3-5.91A46,46,0,0,1,238.11,65a11.93,11.93,0,0,0,.2-6.79,6.15,6.15,0,0,0-1.8-2.75,6.86,6.86,0,0,0-2.8-1.43,7.84,7.84,0,0,0-5.66.72,11,11,0,0,0-3.74,3.34,15.27,15.27,0,0,0-1.87,3.69,22.8,22.8,0,0,0-.79,3c-.16.84-.26,1.5-.31,1.95,0,.2,0,.37-.05.51S221.28,67.39,221.28,67.39Z" style="fill:#263238"></path><path d="M180.54,80.66a6.7,6.7,0,0,1-1.13-2,5.72,5.72,0,0,1-.23-2.69,5.64,5.64,0,0,1,3.4-4.21,6.57,6.57,0,0,1,2.2-.43c1.57-.09,3.27.28,5.09.07a5.74,5.74,0,0,0,2.64-.92A4.19,4.19,0,0,0,194.12,68c.52-1.93.17-4,.94-5.91a5.44,5.44,0,0,1,1.84-2.27,7.07,7.07,0,0,1,2.64-1.15,7.35,7.35,0,0,1,5.29.91,11.36,11.36,0,0,1,3.58,3.44,13.13,13.13,0,0,1,1.82,4,46,46,0,0,1,1.17,6.27c.1.73.18,1.31.24,1.73,0,.18.05.33.07.45s0,.15,0,.15,0-.06,0-.16,0-.27,0-.45c-.05-.42-.1-1-.18-1.73A41.78,41.78,0,0,0,210.46,67a13.15,13.15,0,0,0-1.82-4A11.45,11.45,0,0,0,205,59.35a8.4,8.4,0,0,0-2.6-1,7.14,7.14,0,0,0-2.91,0,7.22,7.22,0,0,0-2.76,1.2,5.59,5.59,0,0,0-2,2.41c-.81,2-.45,4.12-.95,6a3.83,3.83,0,0,1-1.48,2.25,5.21,5.21,0,0,1-2.49.87c-1.75.22-3.45-.13-5.06,0a6.92,6.92,0,0,0-2.29.47,5.82,5.82,0,0,0-1.8,1.19A5.68,5.68,0,0,0,179,75.93a5.77,5.77,0,0,0,.28,2.75,5.27,5.27,0,0,0,.85,1.53A2.47,2.47,0,0,0,180.54,80.66Z" style="fill:#263238"></path><path d="M194.38,64.41a6.05,6.05,0,0,1-5.15,2,5.57,5.57,0,0,1-4-3.38A6.32,6.32,0,0,1,190,61.25a6.25,6.25,0,0,1,4.42,2.6" style="fill:#455a64"></path><path d="M190.41,71.28a6,6,0,0,1-.95,5.46,5.54,5.54,0,0,1-5,1.69A5.94,5.94,0,0,1,190,71" style="fill:#455a64"></path><path d="M180.34,73.27A6,6,0,0,1,175,74.74,5.58,5.58,0,0,1,171.34,71a6.35,6.35,0,0,1,5-1.29,6.24,6.24,0,0,1,4.11,3" style="fill:#455a64"></path><path d="M201.46,58.44a6.3,6.3,0,0,0,.5-5.64A5.56,5.56,0,0,0,197.49,50a5.94,5.94,0,0,0,3.64,8.52" style="fill:#455a64"></path><path d="M238,38.65l-.09-.12c-.07-.1-.16-.21-.27-.34A16.67,16.67,0,0,0,236.52,37a15,15,0,0,0-5.12-3.32,10.86,10.86,0,0,0-4.18-.71,9.85,9.85,0,0,0-4.66,1.37,7.84,7.84,0,0,0-3.46,4.09,25.53,25.53,0,0,0-.79,5.71,10.2,10.2,0,0,1-.66,2.77,7.93,7.93,0,0,1-1.58,2.26c-.63.67-1.3,1.3-1.89,2a9.51,9.51,0,0,0-1.42,2.24,12,12,0,0,0-1,4.76,15.71,15.71,0,0,0,.52,4.21,32.31,32.31,0,0,0,2.16,5.73c.31.65.56,1.15.73,1.49a4.79,4.79,0,0,0,.27.51,3.31,3.31,0,0,0-.21-.54c-.17-.37-.39-.88-.67-1.52a34.62,34.62,0,0,1-2-5.73,15.81,15.81,0,0,1-.47-4.14,11.69,11.69,0,0,1,1-4.64,9.16,9.16,0,0,1,1.37-2.16c.58-.67,1.24-1.29,1.89-2A8.24,8.24,0,0,0,218,47a10,10,0,0,0,.69-2.87,25.76,25.76,0,0,1,.77-5.63,7.58,7.58,0,0,1,3.31-3.93,9.58,9.58,0,0,1,4.51-1.36,10.65,10.65,0,0,1,4.09.66,15.21,15.21,0,0,1,5.11,3.19c.53.49.92.89,1.18,1.16A3.7,3.7,0,0,0,238,38.65Z" style="fill:#263238"></path><path d="M215.3,49.78c.42-.56.72-.28,1.43-.28a4.25,4.25,0,0,1,2,.58,7.85,7.85,0,0,1,4,7.63,6.12,6.12,0,0,1-7.2-8" style="fill:#455a64"></path><path d="M234.28,36.53c.14-.69.53-.57,1.17-.87a4.33,4.33,0,0,1,2.05-.34,7.86,7.86,0,0,1,6.89,5.17,6.12,6.12,0,0,1-9.95-4.14" style="fill:#455a64"></path><path d="M213.09,63.39a7.05,7.05,0,0,1,11-1.48,8.73,8.73,0,0,1-5.25,3.27,8.91,8.91,0,0,1-6.13-1.25" style="fill:#455a64"></path><path d="M213,53.54a7.17,7.17,0,0,1-8.66-7.09,6.43,6.43,0,0,1,8.89,7" style="fill:#455a64"></path><path d="M218.26,41a7.15,7.15,0,0,1-10.52-3.81,6.42,6.42,0,0,1,10.69,3.63" style="fill:#455a64"></path><path d="M220,36.88a7.16,7.16,0,0,1,10.53,3.81,6.43,6.43,0,0,1-10.7-3.63" style="fill:#455a64"></path><path d="M222.58,34.37a7.15,7.15,0,0,1-5.65-9.65,6.42,6.42,0,0,1,5.9,9.63" style="fill:#455a64"></path><path d="M230.12,33.35a7.15,7.15,0,0,1,4-10.44,6.43,6.43,0,0,1-3.84,10.62" style="fill:#455a64"></path><rect x="198.85" y="64.64" width="32.68" height="5.79" style="fill:#407BFF"></rect><polygon points="201.29 69.28 205.67 87.26 225.77 87.26 229.09 69.28 201.29 69.28" style="fill:#407BFF"></polygon><path d="M231.51,70.44c0,.06-7.37.12-16.46.12s-16.46-.06-16.46-.12,7.37-.11,16.46-.11S231.51,70.38,231.51,70.44Z" style="fill:#263238"></path><polygon points="98.62 86.26 98.48 73.33 105.52 73.33 105.76 86.26 98.62 86.26" style="fill:#f5f5f5"></polygon><path d="M105.1,75.63a24.5,24.5,0,0,1-3.27.11,24.5,24.5,0,0,1-3.27-.11,24.5,24.5,0,0,1,3.27-.11A24.5,24.5,0,0,1,105.1,75.63Z" style="fill:#e0e0e0"></path><path d="M105.1,77.63a24.5,24.5,0,0,1-3.27.11,24.5,24.5,0,0,1-3.27-.11,24.5,24.5,0,0,1,3.27-.11A24.5,24.5,0,0,1,105.1,77.63Z" style="fill:#e0e0e0"></path><path d="M105.1,79.62a24.5,24.5,0,0,1-3.27.11,24.5,24.5,0,0,1-3.27-.11,24.5,24.5,0,0,1,3.27-.11A24.5,24.5,0,0,1,105.1,79.62Z" style="fill:#e0e0e0"></path><path d="M105.1,81.62a24.5,24.5,0,0,1-3.27.11,24.5,24.5,0,0,1-3.27-.11,24.5,24.5,0,0,1,3.27-.11A24.5,24.5,0,0,1,105.1,81.62Z" style="fill:#e0e0e0"></path><path d="M105.1,83.62a24.5,24.5,0,0,1-3.27.11,24.5,24.5,0,0,1-3.27-.11,21.73,21.73,0,0,1,3.27-.12A21.73,21.73,0,0,1,105.1,83.62Z" style="fill:#e0e0e0"></path><path d="M97.87,72.9h78a36.88,36.88,0,0,1,0,14H98.2v-.95H103a2.24,2.24,0,0,0,2.24-2.24V76A2.24,2.24,0,0,0,103,73.71H97.87Z" style="fill:#407BFF"></path><path d="M173.21,87.15c-.06,0-.11-3.21-.11-7.17s.05-7.18.11-7.18.11,3.22.11,7.18S173.27,87.15,173.21,87.15Z" style="fill:#263238"></path><path d="M109.35,87.15c-.06,0-.11-3.21-.11-7.17s.05-7.18.11-7.18.11,3.22.11,7.18S109.41,87.15,109.35,87.15Z" style="fill:#263238"></path><path d="M174.58,87.15c-.06,0-.11-3.21-.11-7.17s.05-7.18.11-7.18.11,3.22.11,7.18S174.64,87.15,174.58,87.15Z" style="fill:#263238"></path><path d="M108.07,87.15c-.06,0-.11-3.21-.11-7.17s.05-7.18.11-7.18.11,3.22.11,7.18S108.13,87.15,108.07,87.15Z" style="fill:#263238"></path><path d="M163.4,81.51H122.89A1.89,1.89,0,0,1,121,79.62h0a1.88,1.88,0,0,1,1.88-1.88H163.4a1.89,1.89,0,0,1,1.89,1.88h0A1.89,1.89,0,0,1,163.4,81.51Z" style="fill:#fff"></path><path d="M111.85,61.49V72.3H122V61.49Z" style="fill:#ebebeb"></path><path d="M167.52,60.57c1.59,3.82,1.36,8,0,12.51H111.3V72.3h3.58a5.41,5.41,0,0,0,5.41-5.4h0a5.41,5.41,0,0,0-5.41-5.41H111.1V60.34Z" style="fill:#455a64"></path><path d="M117.83,62.32c0,.06,11.25.11,25.14.11s25.14,0,25.14-.11-11.25-.11-25.14-.11S117.83,62.26,117.83,62.32Z" style="fill:#fff"></path><path d="M117.34,71.71c0,.06,11.32.11,25.28.11s25.28,0,25.28-.11-11.31-.11-25.28-.11S117.34,71.65,117.34,71.71Z" style="fill:#fff"></path><path d="M111.85,67a40.55,40.55,0,0,0,4.21.11,40.83,40.83,0,0,0,4.22-.11,40.83,40.83,0,0,0-4.22-.11A40.55,40.55,0,0,0,111.85,67Z" style="fill:#e0e0e0"></path><path d="M111.85,69.48a33.94,33.94,0,0,0,3.85.11,33.94,33.94,0,0,0,3.85-.11,33.94,33.94,0,0,0-3.85-.11A33.94,33.94,0,0,0,111.85,69.48Z" style="fill:#e0e0e0"></path><path d="M111.79,71.7a18.17,18.17,0,0,0,2.81.11,18.17,18.17,0,0,0,2.81-.11,18.17,18.17,0,0,0-2.81-.11A18.17,18.17,0,0,0,111.79,71.7Z" style="fill:#e0e0e0"></path><path d="M111.77,64.85a37.83,37.83,0,0,0,4.06.11,37.83,37.83,0,0,0,4.06-.11,37.83,37.83,0,0,0-4.06-.11A37.83,37.83,0,0,0,111.77,64.85Z" style="fill:#e0e0e0"></path><path d="M111.85,62.66a19.94,19.94,0,0,0,3.13.12,20,20,0,0,0,3.14-.12,22.57,22.57,0,0,0-3.14-.11A22.48,22.48,0,0,0,111.85,62.66Z" style="fill:#e0e0e0"></path><path d="M106.22,48.93V59.74h20.91V48.93Z" style="fill:#ebebeb"></path><path d="M173.76,54.43a2.71,2.71,0,0,1,0,.29,6.2,6.2,0,0,1-6.22,5.8H105.25v-.78H120a5.41,5.41,0,0,0,5.41-5.41h0a5.41,5.41,0,0,0-5.41-5.4H105.25V47.78l62.3.21A6.23,6.23,0,0,1,173.76,54.43Z" style="fill:#407BFF"></path><path d="M106.22,54.48c0,.06,4.3.11,9.6.11s9.61-.05,9.61-.11-4.3-.11-9.61-.11S106.22,54.42,106.22,54.48Z" style="fill:#e0e0e0"></path><path d="M106.52,56.91c0,.07,4.07.11,9.09.11s9.09,0,9.09-.11-4.07-.11-9.09-.11S106.52,56.85,106.52,56.91Z" style="fill:#e0e0e0"></path><path d="M106.22,59.14c0,.06,3.66.11,8.17.11s8.17,0,8.17-.11S118.9,59,114.39,59,106.22,59.08,106.22,59.14Z" style="fill:#e0e0e0"></path><path d="M106.22,52.29c0,.06,4.21.11,9.41.11s9.4,0,9.4-.11-4.21-.11-9.4-.11S106.22,52.23,106.22,52.29Z" style="fill:#e0e0e0"></path><path d="M106.52,50.1c0,.06,3.75.11,8.38.11s8.37-.05,8.37-.11S119.52,50,114.9,50,106.52,50,106.52,50.1Z" style="fill:#e0e0e0"></path><path d="M125.88,67.7h33.49a1,1,0,0,0,1-1h0a1,1,0,0,0-1-1H125.88a1,1,0,0,0-1,1h0A1,1,0,0,0,125.88,67.7Z" style="fill:#fff"></path><path d="M133,55.35h33.49a1,1,0,0,0,1-1h0a1,1,0,0,0-1-1H133a1,1,0,0,0-1,1h0A1,1,0,0,0,133,55.35Z" style="fill:#fff"></path></g><g id="freepik--speech-bubble--inject-3"><circle cx="359.74" cy="140.55" r="30.79" transform="translate(20.69 325.52) rotate(-49.96)" style="fill:#fff"></circle><path d="M390.54,140.55s0-.17-.06-.5-.05-.84-.09-1.46c0-.32-.05-.68-.07-1.08s-.13-.82-.2-1.28a23.4,23.4,0,0,0-.64-3.17,29.65,29.65,0,0,0-3.42-8.16,30.18,30.18,0,0,0-24.54-14.83c-.66,0-1.32-.09-2-.08l-2,.11c-.34,0-.69,0-1,.06l-1,.16c-.68.12-1.38.2-2.06.34a31.45,31.45,0,0,0-4.07,1.19,31.87,31.87,0,0,0-4,1.76c-.64.35-1.26.75-1.9,1.13a17.7,17.7,0,0,0-1.84,1.27,35.62,35.62,0,0,0-3.47,2.95,36.53,36.53,0,0,0-3,3.54,29.48,29.48,0,0,0-4.36,8.41,30.17,30.17,0,0,0,0,19.27,29.54,29.54,0,0,0,4.36,8.42,36.53,36.53,0,0,0,3,3.54,35.51,35.51,0,0,0,3.47,2.94,14.34,14.34,0,0,0,1.84,1.27c.64.38,1.26.79,1.9,1.14a30.4,30.4,0,0,0,4,1.75,31.5,31.5,0,0,0,4.07,1.2c.68.14,1.38.22,2.06.34l1,.15c.34,0,.68,0,1,.07l2,.1c.67,0,1.33,0,2-.07a28.81,28.81,0,0,0,3.87-.45,30.75,30.75,0,0,0,20.67-14.38,29.46,29.46,0,0,0,3.42-8.16,23.4,23.4,0,0,0,.64-3.17c.07-.47.16-.89.2-1.29l.07-1.07c0-.63.07-1.11.09-1.46s.06-.5.06-.5,0,.17,0,.5,0,.84-.05,1.46c0,.33,0,.69,0,1.09s-.11.82-.18,1.29a20.71,20.71,0,0,1-.6,3.2,29.21,29.21,0,0,1-3.36,8.26A31,31,0,0,1,365.47,171a29.56,29.56,0,0,1-3.92.46c-.67,0-1.34.1-2,.09l-2.06-.1c-.34,0-.69,0-1-.07l-1-.15c-.69-.12-1.39-.2-2.09-.34a33.12,33.12,0,0,1-8.19-3c-.65-.35-1.28-.76-1.93-1.15a15.67,15.67,0,0,1-1.88-1.29,33,33,0,0,1-3.52-3,34,34,0,0,1-3.05-3.59,30.17,30.17,0,0,1-4.45-8.56,30.69,30.69,0,0,1,0-19.59,30,30,0,0,1,4.44-8.55,28.54,28.54,0,0,1,6.57-6.59,15.58,15.58,0,0,1,1.88-1.28c.65-.39,1.28-.8,1.93-1.16a34.29,34.29,0,0,1,4.05-1.77,33,33,0,0,1,4.14-1.2c.7-.14,1.4-.22,2.09-.34l1-.15c.34,0,.69,0,1-.07l2.06-.1c.67,0,1.35.06,2,.08a29.56,29.56,0,0,1,3.92.47,31,31,0,0,1,20.84,14.66,29.21,29.21,0,0,1,3.36,8.26,20.49,20.49,0,0,1,.6,3.2c.07.47.14.9.18,1.29s0,.76,0,1.08c0,.63,0,1.12.05,1.47S390.54,140.55,390.54,140.55Z" style="fill:#263238"></path><path d="M374,137.49a8.9,8.9,0,0,0-2.16-4.87,8.53,8.53,0,0,0-4.38-2.84,7,7,0,0,0-5.4.93,6.9,6.9,0,0,0-2.25,2.43,6.78,6.78,0,0,0-2-2.26,7,7,0,0,0-5.35-1.19,8.57,8.57,0,0,0-4.5,2.63,8.94,8.94,0,0,0-2.39,4.76,10.84,10.84,0,0,0,1.18,6.67,15.27,15.27,0,0,0,5.15,5.05c3.38,2.15,7.85,4.85,7.85,4.85s3.89-2.77,7.37-4.75a15.29,15.29,0,0,0,5.38-4.81A10.8,10.8,0,0,0,374,137.49Z" style="fill:#407BFF"></path><circle cx="330.69" cy="171.34" r="4.56" style="fill:#fff"></circle><path d="M335.25,171.34c-.05,0-.05-.4-.24-1.09a4.59,4.59,0,0,0-1.68-2.39,4.34,4.34,0,1,0,0,7,4.55,4.55,0,0,0,1.68-2.39c.19-.68.19-1.09.24-1.09a.78.78,0,0,1,0,.3,3.16,3.16,0,0,1-.08.84,4.54,4.54,0,0,1-1.64,2.63,4.72,4.72,0,0,1-4.51.74,4.78,4.78,0,0,1,0-9,4.73,4.73,0,0,1,4.51.74,4.57,4.57,0,0,1,1.64,2.63,3.23,3.23,0,0,1,.08.85A.74.74,0,0,1,335.25,171.34Z" style="fill:#263238"></path></g><g id="freepik--Character--inject-3"><path d="M138.31,439.82l-25.39-2.51S87.14,456.17,82.34,453.4l31.93-48.28,22.47,14.69Z" style="fill:#263238"></path><path d="M124.88,423.77a2.36,2.36,0,0,0-1.35-2.85,2.26,2.26,0,0,0-2.83,1.31,2.47,2.47,0,0,0,1.44,3,2.36,2.36,0,0,0,2.8-1.69" style="fill:#e0e0e0"></path><path d="M114.27,405.12l3.82,2.72-32,45.27s-2.36,1.53-3.71.29Z" style="fill:#455a64"></path><path d="M112.65,438.26c-.24-.17.44-1.42.45-3.08s-.58-2.93-.34-3.09,1.37,1.1,1.32,3.11S112.83,438.45,112.65,438.26Z" style="fill:#fff"></path><path d="M107.2,441.94c-.26-.1,0-1.39-.46-2.85s-1.36-2.39-1.2-2.61,1.6.5,2.15,2.33S107.43,442.08,107.2,441.94Z" style="fill:#fff"></path><path d="M99.24,440.8c.09-.24,1.49.21,2.38,1.67s.67,2.9.41,2.87-.5-1.17-1.25-2.36S99.11,441.05,99.24,440.8Z" style="fill:#fff"></path><path d="M119.75,438.37c-.15-.24.89-1.1,1.68-2.5s1.06-2.7,1.34-2.69.46,1.56-.49,3.19S119.86,438.61,119.75,438.37Z" style="fill:#fff"></path><path d="M106,342.16c-1.32-.33-14.94,24.37-15,40.7-.08,16.56,9.74,30.76,23.73,35.92,12,4.4,17.42,5.5,17.42,5.5l-.4,15.82s51.28,4.81,79.47,4.35,37.59-7.11,42.18-19,1.37-14.21,1.37-14.21,3.21-5.05-2.52-11.69S211,374.09,178,366.75l-1.14-11.23Z" style="fill:#263238"></path><path d="M223.79,433.26a.94.94,0,0,1-.26-.09l-.73-.29c-.65-.26-1.58-.7-2.83-1.13a65.31,65.31,0,0,0-10.77-3,105.25,105.25,0,0,0-16.5-1.79c-6.26-.25-13.14-.06-20.37.12s-14.14.16-20.41-.19A133.43,133.43,0,0,1,135.35,425a84.3,84.3,0,0,1-10.9-2.71c-1.27-.4-2.22-.8-2.87-1l-.74-.29a1,1,0,0,1-.25-.12l.27.07.75.24c.67.21,1.63.57,2.9.95a92,92,0,0,0,10.91,2.54,140.66,140.66,0,0,0,16.52,1.71c6.26.32,13.15.29,20.37.14s14.13-.35,20.4-.08a102.37,102.37,0,0,1,16.56,1.91A60.9,60.9,0,0,1,220,431.56c1.25.46,2.16.93,2.8,1.22l.72.35C223.72,433.21,223.8,433.25,223.79,433.26Z" style="fill:#455a64"></path><path d="M161.41,369.82a13.8,13.8,0,0,1-1.73.37c-1.12.19-2.73.52-4.7,1a94,94,0,0,0-29.12,12c-1.72,1.07-3.09,2-4,2.62a10.62,10.62,0,0,1-1.49.95,11.3,11.3,0,0,1,1.37-1.12c.9-.7,2.24-1.65,3.94-2.76a84.91,84.91,0,0,1,29.24-12c2-.4,3.62-.67,4.75-.8A9.87,9.87,0,0,1,161.41,369.82Z" style="fill:#455a64"></path><path d="M255.81,414.53s-.11-.37-.32-1.07a18.75,18.75,0,0,0-1.2-2.95,24.75,24.75,0,0,0-7.75-8.64c-4-2.93-9.45-5.34-15.39-8.14s-12.54-5.77-19.55-8.68a235.7,235.7,0,0,0-36.81-12.26c-2.42-.56-4.62-1-6.56-1.4s-3.61-.68-5-.88l-3.16-.49-.82-.14a1,1,0,0,1-.28-.06,120.43,120.43,0,0,1,15.89,2.61,223.47,223.47,0,0,1,36.93,12.14c7,2.91,13.6,5.93,19.55,8.73s11.38,5.27,15.4,8.28a24.3,24.3,0,0,1,7.72,8.84,15.93,15.93,0,0,1,1.12,3c.1.36.14.64.18.82A.85.85,0,0,1,255.81,414.53Z" style="fill:#455a64"></path><path d="M154.6,369.82a5.58,5.58,0,0,1-1.17.19c-.75.09-1.84.23-3.19.42a88.3,88.3,0,0,0-10.37,2.15,87.26,87.26,0,0,0-10,3.45c-1.25.52-2.26,1-3,1.27a4.75,4.75,0,0,1-1.1.42,5.41,5.41,0,0,1,1-.61c.67-.36,1.66-.85,2.9-1.42a69.93,69.93,0,0,1,10-3.61,68.47,68.47,0,0,1,10.47-2c1.35-.15,2.45-.23,3.22-.26A4.68,4.68,0,0,1,154.6,369.82Z" style="fill:#455a64"></path><path d="M113.14,149.63c3.23-6.4.94-14.88-4.71-19.29s-14-4.74-20.29-1.35-10.55,10.11-11.58,17.2c-.92,6.37.73,13.26,5.14,17.95s11.71,6.74,17.64,4.25l-6.64,9.92c-1,1.45-1.88,3.57-.58,4.74s3.2.12,4.49-1a45.11,45.11,0,0,0,9-10.31c-1.17,2.13-2.38,4.43-2.15,6.84s2.62,4.77,4.92,4c1.76-.59,2.58-2.56,3.19-4.31l4.74-13.67Z" style="fill:#263238"></path><path d="M115.67,181a5.6,5.6,0,0,1-1.46-1.07,19.13,19.13,0,0,1-3.24-3.75,26.21,26.21,0,0,1-4.12-15.64A37.09,37.09,0,0,1,111.47,145a41.13,41.13,0,0,1,2.58-4.2,6.06,6.06,0,0,1,1.14-1.41c.13.08-1.33,2.2-3.16,5.9a39.75,39.75,0,0,0-4.29,15.32,27,27,0,0,0,3.76,15.26A35.13,35.13,0,0,0,115.67,181Z" style="fill:#455a64"></path><path d="M115.52,136.75c8.2-10.6,19.43-16.88,32.82-17.46,7.55-.33,10.72,1.15,16.2,2.47a23.86,23.86,0,0,1,13.84,8.63c4,5.37,7.41,11.41,8.32,18,.93,6.82,1.87,13.68,1.54,20.55s-2,13.83-5.89,19.5L165,192c-9.62.59-19.38,1.17-28.83-.78s-18.7-6.74-24-14.83C104.9,165.14,107.32,147.34,115.52,136.75Z" style="fill:#263238"></path><path d="M131,136.21l23-9.88,6.1.55c13.67-.33,23.51,14.5,23.9,25.57.43,12.3.47,27.33-1.23,36.45-3.44,18.34-19,20.28-19,20.28l.35,6-2.18,44-27.8-17.64-5.17-32.81-4-66.06A6.49,6.49,0,0,1,131,136.21Z" style="fill:#ffbf9d"></path><path d="M178.75,167.75a2.36,2.36,0,0,1-2.34,2.32,2.27,2.27,0,0,1-2.38-2.2,2.36,2.36,0,0,1,2.35-2.32A2.25,2.25,0,0,1,178.75,167.75Z" style="fill:#263238"></path><path d="M180.05,158.71c-.3.3-2.06-1.07-4.6-1.14s-4.44,1.16-4.71.84c-.13-.14.18-.69,1-1.26a6.49,6.49,0,0,1,3.78-1.05,6.19,6.19,0,0,1,3.65,1.29C180,158,180.2,158.58,180.05,158.71Z" style="fill:#263238"></path><path d="M164.27,179.06c0-.14,1.58-.37,4.15-.63.65-.05,1.27-.16,1.39-.6a3.24,3.24,0,0,0-.38-1.94c-.56-1.58-1.16-3.25-1.78-5-2.47-7.11-4.24-13-4-13.05s2.52,5.59,5,12.7c.6,1.75,1.16,3.42,1.7,5a3.74,3.74,0,0,1,.27,2.56,1.63,1.63,0,0,1-1.09.92,4.68,4.68,0,0,1-1.11.12C165.88,179.24,164.28,179.21,164.27,179.06Z" style="fill:#263238"></path><path d="M163.89,209.16a46.85,46.85,0,0,1-24.49-7.26s6.22,12.95,24.7,11.73Z" style="fill:#ff9a6c"></path><path d="M178.94,149.84c-.44.61-2.38.14-4.66.27s-4.18.67-4.66.1c-.22-.28,0-.88.85-1.48a7.26,7.26,0,0,1,7.52-.3C178.83,149,179.14,149.55,178.94,149.84Z" style="fill:#263238"></path><path d="M152.32,168.42a2.36,2.36,0,0,0,2.31,2.36,2.25,2.25,0,0,0,2.41-2.15,2.36,2.36,0,0,0-2.3-2.36A2.26,2.26,0,0,0,152.32,168.42Z" style="fill:#263238"></path><path d="M145.67,158.66c.29.31,2.07-1,4.61-1s4.42,1.23,4.7.92c.13-.14-.17-.7-1-1.28a6.53,6.53,0,0,0-3.76-1.12,6.21,6.21,0,0,0-3.67,1.23C145.78,158,145.52,158.52,145.67,158.66Z" style="fill:#263238"></path><path d="M147,150.49c.51.57,2.47-.05,4.82-.1s4.37.34,4.82-.26c.2-.3-.12-.88-1-1.41a7.25,7.25,0,0,0-3.93-.91,7.14,7.14,0,0,0-3.83,1.2C147,149.61,146.75,150.21,147,150.49Z" style="fill:#263238"></path><path d="M129.06,173.45c0-1.37-1.46-4.65-2.81-4.9-3.6-.67-10.13-.56-10.45,8.63-.43,12.56,12.27,10.4,12.3,10S128.94,178.18,129.06,173.45Z" style="fill:#ffbf9d"></path><path d="M124.8,182.51c-.06,0-.23.15-.6.31a2.21,2.21,0,0,1-1.64,0c-1.31-.53-2.35-2.67-2.34-4.94a7.37,7.37,0,0,1,.72-3.11,2.5,2.5,0,0,1,1.71-1.62,1.11,1.11,0,0,1,1.27.64c.15.36.06.61.13.63s.28-.2.19-.72a1.41,1.41,0,0,0-.46-.81,1.71,1.71,0,0,0-1.2-.36,3.1,3.1,0,0,0-2.35,1.87,7.37,7.37,0,0,0-.88,3.47c0,2.54,1.21,4.95,3,5.54a2.34,2.34,0,0,0,2-.27C124.76,182.82,124.84,182.54,124.8,182.51Z" style="fill:#ff9a6c"></path><path d="M125.74,168.6l3.28,3.22c13.39-13.54,39.38-47.24,37.93-45.23a40.07,40.07,0,0,0-19.71-1.6c-10.18,2-29.44,7.66-28.81,19.72S125.74,168.6,125.74,168.6Z" style="fill:#263238"></path><path d="M107.45,166.32a3.78,3.78,0,0,1,.17-.73,13.79,13.79,0,0,1,.8-2,18.35,18.35,0,0,1,5.08-6,34.18,34.18,0,0,1,10.41-5.36c4.16-1.48,8.86-2.67,13.44-4.79a61.78,61.78,0,0,0,12.2-7.27,64.74,64.74,0,0,0,8.54-7.88,70.51,70.51,0,0,0,4.89-6.14l1.21-1.76a3.41,3.41,0,0,1,.46-.6,4,4,0,0,1-.35.67c-.25.42-.6,1-1.11,1.83a59.86,59.86,0,0,1-4.76,6.3,61.1,61.1,0,0,1-8.52,8,59.88,59.88,0,0,1-12.29,7.4c-4.65,2.14-9.38,3.32-13.51,4.75a34.82,34.82,0,0,0-10.33,5.16,19,19,0,0,0-5.14,5.8C107.77,165.34,107.52,166.35,107.45,166.32Z" style="fill:#455a64"></path><path d="M111.15,168.2a6.7,6.7,0,0,1,.41-2.75,12.85,12.85,0,0,1,4.55-6c2.57-2,6.27-3.33,10.35-4.38a61.74,61.74,0,0,0,12.89-4.48,54.58,54.58,0,0,0,11.4-7.47,56.84,56.84,0,0,0,7.73-8,58.89,58.89,0,0,0,4.27-6.21l1-1.79a3.36,3.36,0,0,1,.39-.6,2.69,2.69,0,0,1-.27.66L163,129a49.87,49.87,0,0,1-4.12,6.37,54.24,54.24,0,0,1-19.2,15.79,60.52,60.52,0,0,1-13,4.47c-4.07,1-7.7,2.26-10.22,4.18a12.9,12.9,0,0,0-4.59,5.75A15,15,0,0,0,111.15,168.2Z" style="fill:#455a64"></path><path d="M156,182a2,2,0,0,0-1.1-.36,1.56,1.56,0,0,0-.94.5,4.29,4.29,0,0,0,3,7.41c1.71,0,3.74-1,4.76-4.07C160,184.41,157.83,183,156,182Z" style="fill:#ff9a6c"></path><path d="M157,189.64a6.07,6.07,0,0,1-2.48-1.07,4,4,0,0,1-1.45-2.39,4.23,4.23,0,0,1,.77-3.29c.37-.47.85-.93,1.29-.86a5.3,5.3,0,0,1,1.49.74l2.63,1.53a13.26,13.26,0,0,0,2.51,1.27,12.31,12.31,0,0,0-2.29-1.65l-2.57-1.64a4.91,4.91,0,0,0-1.7-.85,1.53,1.53,0,0,0-1.11.33,4.09,4.09,0,0,0-.74.76,4.63,4.63,0,0,0-.84,3.77,4.28,4.28,0,0,0,1.75,2.63A3.31,3.31,0,0,0,157,189.64Z" style="fill:#263238"></path><path d="M225,259.11s-.47-17.59-.07-20.28-.94-3.76-2.15-3.68-2.15,6.1-2.15,6.1.94-9.53.81-10.88a2.55,2.55,0,0,0-3.63-2c-1.88.94-3.49,5.1-3.49,5.1s-1-1.35-2.51.71c-.72,1-4,16.34-4,16.34a31.39,31.39,0,0,1-2.79-2,4.59,4.59,0,0,0-3.73-1.05l3.73,9.92.39,1.76,3.87,17.1-10.47,7.1,7.77,15s18.61-17.82,20.22-22.07S225,259.11,225,259.11Z" style="fill:#ffbf9d"></path><path d="M207.18,258.86a8.87,8.87,0,0,1-.3-4.82c.2-1.33.49-2.49.69-3.34a4.17,4.17,0,0,1,.42-1.35,3.75,3.75,0,0,1-.06,1.42c-.11.87-.34,2-.54,3.35A37.69,37.69,0,0,0,207.18,258.86Z" style="fill:#ff9a6c"></path><path d="M211.41,252.28a84.28,84.28,0,0,1,1.22-9.31,84.5,84.5,0,0,1,1.73-9.24,84.6,84.6,0,0,1-1.22,9.32A84,84,0,0,1,211.41,252.28Z" style="fill:#ff9a6c"></path><path d="M214.64,252.14c-.14,0,.73-5.22,2-11.61S218.92,229,219.06,229s-.74,5.23-2,11.62S214.78,252.17,214.64,252.14Z" style="fill:#ff9a6c"></path><path d="M218.64,254.6a52.72,52.72,0,0,1,.81-7.45,54.45,54.45,0,0,1,1.33-7.38,53.79,53.79,0,0,1-.82,7.46A54.7,54.7,0,0,1,218.64,254.6Z" style="fill:#ff9a6c"></path><path d="M187.61,365.83a8.86,8.86,0,0,0,2,4.44c1.55,1.74,5,2.88,5,2.88s2.69,4.42,4.6,5.17,3.47.51,3-1.89-3-5.41-3-5.41,6.23,3,6.67,3.52,6.88,7.22,8.34,7.59a2.42,2.42,0,0,0,2.4-.88h0s2,1.45,3,1.14.73-1.2.73-1.2l-2.66-3.5L206.23,367l-8.3-4-9.23-27.39-1.65,2.65s-5.94,12.75-5.83,13.38S187.61,365.83,187.61,365.83Z" style="fill:#ffbf9d"></path><polygon points="181.82 356.22 186.44 363.27 196.47 358.58 190.07 326.08 181.82 356.22" style="fill:#407BFF"></polygon><path d="M188.69,270.43c-3.55-12.72-21.2-45.71-25-52.17l-35.94-9.87s-7.59,4.6-17,19.69c-10.63,17.09-7.87,50.68-6.69,59.26s2.28,30.7,2.28,30.7-6.24,9-4.76,15.55S106,343.3,106,343.3L178.77,359h0A12.7,12.7,0,0,0,187,348.87c.48-3.27,1.16-7.54,2.11-12.67C191.49,323.47,192.24,283.16,188.69,270.43Z" style="fill:#407BFF"></path><path d="M164.91,287.43l33.37-5.08,9.49,18.29S166.61,331,159.84,334s-15.41-.11-21.92-1.92c-8.29-2.3-10.59-8.13-14.88-13.1s-16.43-48.35-16.43-48.35-.91,1.36.9-14.45,16.26-32.74,24.61-30.26,23,20.78,23.71,28.23,6.24,33.3,6.24,33.3Z" style="fill:#407BFF"></path><path d="M147.27,240.1c0,.05-.66-.31-1.85-.81a22.76,22.76,0,0,0-5.25-1.54,23.44,23.44,0,0,0-8.06,0,22.07,22.07,0,0,0-9,3.83,34.62,34.62,0,0,0-7.08,6.94c-1.9,2.4-3.41,4.73-4.68,6.68s-2.28,3.54-3,4.62c-.36.54-.65,1-.86,1.23s-.31.42-.33.41a2.12,2.12,0,0,1,.25-.46c.2-.35.46-.77.77-1.29L111,255a77,77,0,0,1,4.61-6.78,34.52,34.52,0,0,1,7.15-7.07,22.18,22.18,0,0,1,9.27-3.87,22.85,22.85,0,0,1,8.21.07,20.68,20.68,0,0,1,5.26,1.71,14,14,0,0,1,1.33.71A3,3,0,0,1,147.27,240.1Z" style="fill:#263238"></path><path d="M111.61,277.41s.08.24.21.7l.57,2.07c.49,1.83,1.2,4.5,2.12,7.93,1.81,6.92,4.43,16.87,7.66,29.12v0a25,25,0,0,0,10,12.49A35.66,35.66,0,0,0,149.62,335a36.18,36.18,0,0,0,4.88-.05,17.54,17.54,0,0,0,4.83-.95c2.88-1.62,5.75-3.61,8.65-5.53,5.78-3.92,11.69-8.06,17.71-12.31,7.58-5.35,14.92-10.61,21.93-15.67l-.08.32-9.47-18.3.25.13-36.22,5-.18,0,0-.17c-1.89-10.31-3.43-18.64-4.49-24.41-.51-2.86-.91-5.09-1.19-6.62l-.3-1.72c-.06-.39-.08-.59-.08-.59s.06.19.14.58.19,1,.34,1.71L157.6,263c1.1,5.76,2.69,14.08,4.65,24.37l-.21-.15,36.21-5.13.17,0,.07.15c3,5.82,6.2,11.93,9.5,18.28l.1.19-.18.13c-7,5.07-14.34,10.33-21.92,15.69-6,4.25-11.93,8.39-17.73,12.3-2.93,1.94-5.72,3.89-8.73,5.57a18.24,18.24,0,0,1-5,1,37.09,37.09,0,0,1-4.94.05,36.23,36.23,0,0,1-17.66-5.36,25.46,25.46,0,0,1-10.15-12.73h0c-3.16-12.27-5.72-22.24-7.5-29.16-.87-3.44-1.55-6.12-2-8-.23-.9-.4-1.59-.52-2.07S111.61,277.41,111.61,277.41Z" style="fill:#263238"></path><path d="M152.46,311.19a4,4,0,0,1,.1-1c.09-.65.27-1.58.52-2.73a58.09,58.09,0,0,1,6.78-17c.6-1,1.11-1.8,1.5-2.34a3.69,3.69,0,0,1,.63-.8c.06,0-.69,1.28-1.81,3.32a72.88,72.88,0,0,0-6.74,16.87C152.84,309.79,152.54,311.21,152.46,311.19Z" style="fill:#263238"></path><path d="M190.31,325.63a9,9,0,0,1,0,1.45c-.05.94-.13,2.29-.29,3.95a101.09,101.09,0,0,1-2.14,12.9c-.59,2.48-1.23,4.83-1.89,6.95a14.68,14.68,0,0,1-2.64,5.28,7.35,7.35,0,0,1-3.27,2.27,4.48,4.48,0,0,1-1.07.22,1.22,1.22,0,0,1-.38,0s.52-.07,1.38-.41a7.61,7.61,0,0,0,3.06-2.31,15.16,15.16,0,0,0,2.46-5.2c.63-2.11,1.26-4.45,1.84-6.92A124.06,124.06,0,0,0,189.65,331c.18-1.58.34-2.9.46-3.92A7,7,0,0,1,190.31,325.63Z" style="fill:#263238"></path></g><g id="freepik--Dog--inject-3"><path d="M244.84,193.29s-.13,18.52,3.27,26.15a16.52,16.52,0,0,0,12.6,9.87s-.46,2.5,14.69,6.94c4.33,1.27,8.83,5.23,9.51,6.71,2.36,5.12,2.13,7.73,1.88,13.07-.27,5.58-1.23,14.58-1.23,14.58l41.25-15.33-10.57-52.7-34-10.38a12,12,0,0,1-8.53,1.16C268.8,192.24,242.54,187.44,244.84,193.29Z" style="fill:#ae7461"></path><path d="M273.67,196.27a48,48,0,0,0,5.65-4.61c.74-.83,3.92-5.69,6.28-7.14s13.3-5.16,22.66-2.61,22.62,7.68,28.56,18.59,10.89,48.16,15.36,54.52c3.38,4.82-58.76,6.9-58.81,6.06S273.67,196.27,273.67,196.27Z" style="fill:#ae7461"></path><path d="M287.49,255.32c-1.31,2.61-2.07,21.3-2.5,42.62s13.91,53.8,13.91,53.8,16.44,30.21,23.4,42.4,17.84,34.37,23.06,38.73,77.68,1.88,78.77,0a67,67,0,0,0,5.76-13.8,43.13,43.13,0,0,0-3.81-33.51c-3.05-5.45-5.87-10.3-5.87-9.7,0,1.3,5.22,5.66,4.79-1.74s-10.88-17-10.88-17,3.95-1.12-1.27-7.6S392.8,330.6,385,313.2s-17.21-31.27-23.3-43.45S346.61,240.14,344,234.88,287.49,255.32,287.49,255.32Z" style="fill:#ae7461"></path><path d="M286.36,250.18s34.79-.08,59.83-17.78c1.23,1.77,2.34,6.74,1.54,8.8,0,0-31.57,19-61.13,16.51C286.2,255.24,285.67,252.15,286.36,250.18Z" style="fill:#407BFF"></path><g style="opacity:0.30000000000000004"><path d="M334.3,218.19l-38.72,24.93a10.13,10.13,0,0,0,3.12,8.74,16.36,16.36,0,0,0,8.81,4.19c9.42,1.57,19.15-3.53,24.07-11.32S337,227,334.3,218.19Z"></path></g><path d="M327.32,199.33c2.68,5.28,5.39,10.6,7,16.29s2.18,11.83.49,17.51c-3,10.24-13,17.33-23.39,19.61-4.89,1.07-10.7,1-14-2.77-2.21-2.48-2.8-6.08-2.37-9.38a41.73,41.73,0,0,1,2.95-9.51A142.55,142.55,0,0,0,306.51,197" style="fill:#ae7461"></path><path d="M306.51,197a1.93,1.93,0,0,1,0,.36c0,.26-.06.6-.11,1-.1.91-.27,2.25-.53,4a136.68,136.68,0,0,1-3,14.45c-.8,3-1.78,6.29-3,9.76q-.9,2.6-1.95,5.33c-.71,1.82-1.45,3.69-2,5.65a17.91,17.91,0,0,0-.72,6.16,10.42,10.42,0,0,0,2.26,5.92,9.83,9.83,0,0,0,5.73,3.14,19.52,19.52,0,0,0,6.9,0c9.27-1.67,17.47-6.92,21.84-13.83A23.76,23.76,0,0,0,335.56,228a33.49,33.49,0,0,0-.79-10.05,51.32,51.32,0,0,0-2.55-8c-.92-2.3-1.82-4.22-2.57-5.8s-1.33-2.75-1.74-3.6l-.45-1a1.44,1.44,0,0,1-.14-.33,1.73,1.73,0,0,1,.18.31l.5.92c.43.81,1.06,2,1.83,3.56s1.71,3.49,2.66,5.78a51.23,51.23,0,0,1,2.64,8,33.86,33.86,0,0,1,.86,10.17,24.14,24.14,0,0,1-3.65,11.1c-4.45,7.06-12.74,12.39-22.16,14.09a19.88,19.88,0,0,1-7.09,0,10.31,10.31,0,0,1-6-3.32,10.88,10.88,0,0,1-2.36-6.21,18.23,18.23,0,0,1,.75-6.33c.57-2,1.32-3.87,2-5.68s1.37-3.59,2-5.31c1.21-3.45,2.2-6.71,3-9.71,1.64-6,2.58-11,3.17-14.39.29-1.71.5-3.05.63-4,.06-.43.12-.77.16-1A2.07,2.07,0,0,1,306.51,197Z" style="fill:#263238"></path><g style="opacity:0.30000000000000004"><path d="M296.38,191.34a6.07,6.07,0,0,0-3.57-.46,1.56,1.56,0,0,0-1.19.71,1.93,1.93,0,0,0,.55,2.09,7.22,7.22,0,0,0,3.32,2.1,2.9,2.9,0,0,0,1.37.12,1.73,1.73,0,0,0,1.2-.82,2.38,2.38,0,0,0-.09-2.3,5.13,5.13,0,0,0-1.58-1.5"></path></g><path d="M290.2,201.42a3.68,3.68,0,1,1-2.87-4.35A3.68,3.68,0,0,1,290.2,201.42Z" style="fill:#263238"></path><path d="M280,229.86a3.94,3.94,0,0,1-.92.36,8.42,8.42,0,0,1-1.12.27,11.14,11.14,0,0,1-1.51.24,39.56,39.56,0,0,1-8.8-.09,60.64,60.64,0,0,1-8.67-1.53,26.17,26.17,0,0,1-2.55-.78,3.57,3.57,0,0,1-.89-.41c0-.08,1.33.38,3.53.84a82.11,82.11,0,0,0,8.63,1.36,47.8,47.8,0,0,0,8.72.25C278.64,230.21,280,229.77,280,229.86Z" style="fill:#263238"></path><path d="M320.84,229.2a3.45,3.45,0,0,1,0,.85,12.11,12.11,0,0,1-.44,2.34,13.06,13.06,0,0,1-4.92,6.92l-.39.28.05-.48a123.14,123.14,0,0,0,.75-15.35c0-1.2-.06-2.38-.1-3.54l.5.07a29.8,29.8,0,0,1-4.62,8.93l-.57.75.17-.92c.71-4,1.3-7.28,1.73-9.7.21-1.11.39-2,.52-2.71a6.28,6.28,0,0,1,.23-.95,4.8,4.8,0,0,1-.09,1c-.1.69-.24,1.6-.4,2.73-.39,2.42-.92,5.75-1.55,9.72l-.4-.17a30.42,30.42,0,0,0,4.49-8.82l.44-1.4.06,1.47c0,1.16.09,2.35.11,3.55a113.62,113.62,0,0,1-.84,15.41l-.34-.2a13.13,13.13,0,0,0,4.93-6.64A22.77,22.77,0,0,0,320.84,229.2Z" style="fill:#263238"></path><path d="M255.89,194.43c-.2-1-1.2-1.67-2.18-2.18a18.24,18.24,0,0,0-4.56-1.63,5.55,5.55,0,0,0-1.94-.13c-.64.1-2,.5-2.22,1a10.13,10.13,0,0,0,.3,9.12,1.78,1.78,0,0,0,1.26,1.14,1.9,1.9,0,0,0,.91-.18,21.37,21.37,0,0,0,7.13-4.48A3.15,3.15,0,0,0,255.89,194.43Z" style="fill:#263238"></path><path d="M249.5,192.5a3.64,3.64,0,0,0-1.71-1.17,1.8,1.8,0,0,0-1.51.61.63.63,0,0,0,.09.91,5.92,5.92,0,0,0,2.64,1.06.91.91,0,0,0,.88-.23C250.15,193.32,249.82,192.83,249.5,192.5Z" style="fill:#fff"></path><path d="M429.35,392.89a10.55,10.55,0,0,1,.6,1.57,38.29,38.29,0,0,1,1.25,4.41,40.64,40.64,0,0,1,.41,15.09,47.5,47.5,0,0,1-2.13,8.06,55.8,55.8,0,0,1-2.72,6.24c-.88,1.72-1.66,3.09-2.23,4a10.29,10.29,0,0,1-.93,1.4,10.78,10.78,0,0,1,.75-1.5c.52-.94,1.24-2.33,2.08-4.06a64.45,64.45,0,0,0,2.6-6.24,49.23,49.23,0,0,0,2.06-8,42.47,42.47,0,0,0-.25-14.92c-.4-1.88-.76-3.4-1.08-4.43A10.54,10.54,0,0,1,429.35,392.89Z" style="fill:#263238"></path><path d="M337.29,290.14c8.68-11.42-2.5-35.06-21.7-29.77s-22.54,21.42-22.54,21.42a69.23,69.23,0,0,0-5.85,8.07c-2.5,4.18-6.29,3-6.29,3l-16.53-31.94s-20.29-13.15-28-17.84a2.25,2.25,0,0,0-3.4,1.64c-.55,4.28-1.12,11.69.74,15.84,3,6.63,17,7.94,17,7.94s4.17,11.07,6.95,16.91,3.62,18.92,3.62,20.59.11,10.71.39,13.21,2.4.71,2.4.71c.55,6.12,13.32,14.87,15.55,17.1l-1.33-8s5.5,5.5,7.19,5.68-1.13-4.84-1.13-4.84,10.56-1.05,16-3.45S332.06,297,337.29,290.14Z" style="fill:#ae7461"></path><path d="M279.66,337l-.31-.26c-.2-.18-.52-.42-.93-.75l-3.67-2.81a62.56,62.56,0,0,1-5.61-4.86,26,26,0,0,1-3.05-3.55,11.06,11.06,0,0,1-2.14-4.85l.28.07a4.55,4.55,0,0,1-1,1,1.09,1.09,0,0,1-.75.21.81.81,0,0,1-.56-.59,5.9,5.9,0,0,1-.22-1.42c0-.47-.07-.95-.1-1.43q-.18-2.88-.31-6c-.09-2.08-.16-4.26-.21-6.49s-.33-4.53-.62-6.89c-.41-9.7-6.22-19-10-29.78l.21.16a41.18,41.18,0,0,1-9.18-2.06,21.3,21.3,0,0,1-4.39-2.1,9.43,9.43,0,0,1-3.48-3.58,14,14,0,0,1-1.29-4.88,36.13,36.13,0,0,1-.17-5.1c.05-1.71.18-3.42.37-5.14l.16-1.28a2.46,2.46,0,0,1,.57-1.31,2.43,2.43,0,0,1,2.65-.7,4.83,4.83,0,0,1,1,.56l.92.59,1.85,1.17,3.66,2.34,7.22,4.6,13.89,8.86.05,0,0,.06c6,11.66,11.57,22.43,16.49,32l-.13-.11a5.19,5.19,0,0,0,4.9-1.42,9.51,9.51,0,0,0,1.54-2.12c.45-.76.88-1.51,1.3-2.26.83-1.5,1.62-3,2.36-4.42s1.41-2.87,2.19-4.2a42.4,42.4,0,0,1,10.17-12,31.1,31.1,0,0,1,8.75-4.93c1.08-.42,2-.58,2.53-.76s.88-.21.88-.21l-.86.28c-.56.2-1.44.37-2.5.81a31.66,31.66,0,0,0-8.65,5,42.79,42.79,0,0,0-10,12c-.76,1.31-1.39,2.76-2.15,4.2s-1.53,2.93-2.36,4.43q-.62,1.14-1.29,2.28a9.85,9.85,0,0,1-1.6,2.21,5.6,5.6,0,0,1-5.3,1.53l-.08,0,0-.08L264.16,261l.09.09-13.9-8.85-7.21-4.59-3.66-2.33-1.85-1.18-.92-.59a5,5,0,0,0-.91-.51,1.92,1.92,0,0,0-2.08.55,2,2,0,0,0-.46,1l-.15,1.28c-.19,1.7-.32,3.41-.37,5.1a34.91,34.91,0,0,0,.16,5,13.56,13.56,0,0,0,1.24,4.71,8.9,8.9,0,0,0,3.29,3.38,21.69,21.69,0,0,0,4.29,2.06,41.24,41.24,0,0,0,9.06,2l.15,0,0,.14c2,5.34,4.05,10.48,6.19,15.29a34.88,34.88,0,0,1,1.53,3.63,35.81,35.81,0,0,1,1,3.71c.53,2.46.9,4.9,1.19,7.27s.49,4.68.59,6.92.11,4.41.19,6.5.17,4.09.28,6l.09,1.43a6.09,6.09,0,0,0,.19,1.33c.07.2.18.36.32.38a.81.81,0,0,0,.52-.16,4.22,4.22,0,0,0,.9-.89l.23-.3.05.37a10.67,10.67,0,0,0,2.05,4.73,26.22,26.22,0,0,0,3,3.54,62.94,62.94,0,0,0,5.53,4.9l3.62,2.88A11.26,11.26,0,0,1,279.66,337Z" style="fill:#263238"></path><g style="opacity:0.30000000000000004"><path d="M308.89,316.78A120.74,120.74,0,0,0,321,303.22c4.37,2.61,8.77,2.93,13.82,3.52a29.77,29.77,0,0,1-12,2.07,8.93,8.93,0,0,0,3.44,3.84,28.2,28.2,0,0,1-9.86-.63c-6.43,8.92-15.86,14.18-26.58,16.58C289.75,328.6,302.05,323.7,308.89,316.78Z"></path></g><path d="M321,303.22a2.26,2.26,0,0,1-.25.4l-.79,1.07c-.69.94-1.72,2.27-3,3.87a85,85,0,0,1-11.37,11.59,52.57,52.57,0,0,1-7.37,5.09,47.74,47.74,0,0,1-6.66,3,48.69,48.69,0,0,1-4.71,1.42l-1.31.29a1.25,1.25,0,0,1-.46.07s.14-.07.44-.17l1.27-.38c1.11-.34,2.71-.84,4.64-1.58a50,50,0,0,0,6.55-3.11,54.09,54.09,0,0,0,7.28-5.07,93.63,93.63,0,0,0,11.41-11.43c1.36-1.56,2.43-2.85,3.17-3.75l.86-1C320.82,303.32,320.93,303.21,321,303.22Z" style="fill:#263238"></path><path d="M481.17,422.11c-1.78-5.09-4.38-10.15-8.73-13.34-11-8.07-31.66-5.73-45-7.76l-1.14,15.44c2.46,3.43,9.88,6,4.68,14.16-2.27,3.56-6.43,5.43-9.54,8.29a28.38,28.38,0,0,0-7.86,12.49c-.74,2.43-1.08,5.28.45,7.3s5,1.86,5.84-.16a21.91,21.91,0,0,1-14.31,14.34,35.26,35.26,0,0,0,46.1-5.07l-2.87,4.58c9.84-2.28,20.29-4.88,27.25-12.2A30.76,30.76,0,0,0,484,442,46.78,46.78,0,0,0,481.17,422.11Z" style="fill:#ae7461"></path><g style="opacity:0.30000000000000004"><path d="M451,437a36.14,36.14,0,0,1-8.59,11.65,8,8,0,0,0,7,.36,23.89,23.89,0,0,0,6.13-3.88,17.28,17.28,0,0,1-2.61,5.9,24.92,24.92,0,0,0,15.21-10.69l-3.31-9.71Z"></path></g><path d="M450,428a35.36,35.36,0,0,1-6.05,19.38,17.05,17.05,0,0,0,16.66-10.9l-.48,9.92a17.05,17.05,0,0,0-1.94-32.55" style="fill:#ae7461"></path><path d="M458.17,413.84a12.31,12.31,0,0,1,3.18,1.05,17.53,17.53,0,0,1,7,5.93,17.89,17.89,0,0,1,2.66,5.83,16.07,16.07,0,0,1,0,7.4,18,18,0,0,1-3.63,7.36,17.2,17.2,0,0,1-7.16,5.23l-.37.14,0-.4c.06-1.36.14-2.8.21-4.26.09-1.92.18-3.82.28-5.67l.5.1a17,17,0,0,1-7.24,8.58,16.79,16.79,0,0,1-9.68,2.46l-.38,0,.21-.31a35.74,35.74,0,0,0,5.59-13.68,39.22,39.22,0,0,0,.53-4.12c0-.45.05-.81.07-1.09a1.38,1.38,0,0,1,0-.37,1.53,1.53,0,0,1,0,.37c0,.25,0,.62,0,1.1a35.83,35.83,0,0,1-.41,4.15,35.26,35.26,0,0,1-5.48,13.88l-.16-.33a16.92,16.92,0,0,0,16.4-10.78l.59-1.6-.09,1.7c-.09,1.85-.18,3.74-.27,5.66-.08,1.46-.15,2.91-.21,4.26l-.35-.25a16.73,16.73,0,0,0,7-5.06,17.53,17.53,0,0,0,3.57-7.15,15.74,15.74,0,0,0,0-7.19,17.84,17.84,0,0,0-9.3-11.68A26.38,26.38,0,0,0,458.17,413.84Z" style="fill:#263238"></path><g style="opacity:0.30000000000000004"><path d="M429.7,420.47A16.31,16.31,0,0,0,431.38,401a45,45,0,0,1-1.75,19.14"></path></g><path d="M388.07,357.17c-7.8-6.44-15.85-12.85-25.25-16.58s-20.5-4.43-29.35.45c-6.8,3.74-11.68,10.5-13.91,17.93a43.23,43.23,0,0,0,0,23c.28-1.45.57-2.91.85-4.36a124.52,124.52,0,0,1,10.8,41.63s-29.17-1-35.57,0-14.06,6.66-16,16.15h40c15.7,0,75.08,2.83,84.65-.56s11.17-15.21,11.49-21" style="fill:#ae7461"></path><path d="M415.84,413.85s0,1-.21,2.95a33.82,33.82,0,0,1-1.92,8.28,20.05,20.05,0,0,1-3,5.37,14.25,14.25,0,0,1-5.92,4.35,17.86,17.86,0,0,1-4,.92c-1.41.19-2.87.32-4.38.43-3,.22-6.2.34-9.56.42-13.44.28-29.55-.08-47.62-.55l-13.92-.34c-4.76-.1-9.62-.05-14.6-.06H279.35l.06-.3a21.21,21.21,0,0,1,8.53-13.11,18.81,18.81,0,0,1,7.5-3.21,70.88,70.88,0,0,1,8.24-.47c9.37-.09,18.57.15,27.54.43l-.26.28a124.86,124.86,0,0,0-10.77-41.55l.45-.05c-.29,1.48-.57,2.92-.84,4.36l-.21,1-.26-1a43.55,43.55,0,0,1-.11-22.63,31.3,31.3,0,0,1,11.53-16.87,26.47,26.47,0,0,1,8.57-4,32,32,0,0,1,8.78-1.08,42.31,42.31,0,0,1,15.22,3.23,64.46,64.46,0,0,1,11.12,6c3.06,2.05,5.56,4,7.57,5.53s3.51,2.84,4.53,3.68l1.15,1,.38.34s-.15-.1-.41-.31l-1.17-.94c-1-.82-2.56-2.06-4.57-3.62s-4.53-3.44-7.61-5.46a65,65,0,0,0-11.1-5.93,41.91,41.91,0,0,0-15.12-3.14A28.62,28.62,0,0,0,331,342.85a30.85,30.85,0,0,0-11.34,16.66,43.18,43.18,0,0,0,.15,22.39l-.46,0c.28-1.44.56-2.88.84-4.37l.14-.73.32.68a125.16,125.16,0,0,1,10.84,41.71l0,.29h-.29c-9-.28-18.16-.52-27.51-.42a68.67,68.67,0,0,0-8.16.45,18.29,18.29,0,0,0-7.29,3.12,20.73,20.73,0,0,0-8.33,12.79l-.25-.31h31c5,0,9.85,0,14.61.08l13.92.36c18.07.5,34.18.9,47.6.66,3.36-.06,6.55-.17,9.55-.38,1.5-.1,3-.23,4.36-.41a17.7,17.7,0,0,0,4-.89,14,14,0,0,0,5.84-4.24,20,20,0,0,0,3.05-5.3,34,34,0,0,0,2-8.22c.13-1,.19-1.7.23-2.19S415.84,413.85,415.84,413.85Z" style="fill:#263238"></path><path d="M361.66,403.94a2.28,2.28,0,0,1-.26-.44c-.15-.3-.39-.73-.65-1.32a49.79,49.79,0,0,1-2-5,55.61,55.61,0,0,1-2.92-17.66l.48.13c-.15.26-.31.55-.48.83-1.9,3.23-3.71,6.3-5.35,9.07l-.32.56-.12-.64a35.88,35.88,0,0,1-.17-11.33,29.43,29.43,0,0,1,.63-3.18,5.13,5.13,0,0,1,.34-1.1,9.08,9.08,0,0,1-.19,1.13c-.14.74-.33,1.82-.49,3.19a37.65,37.65,0,0,0,.35,11.21l-.44-.08c1.63-2.78,3.42-5.86,5.31-9.09.17-.29.33-.57.49-.83l.48-.82v.95a58.18,58.18,0,0,0,2.75,17.55c.69,2.17,1.35,3.88,1.84,5.06A15.79,15.79,0,0,1,361.66,403.94Z" style="fill:#263238"></path><path d="M303.32,425.15c0,.09-.89.2-2.24.7a12.45,12.45,0,0,0-4.66,3,12.64,12.64,0,0,0-2.85,4.76c-.45,1.37-.54,2.28-.63,2.27a5.92,5.92,0,0,1,.27-2.37,11.39,11.39,0,0,1,7.75-8A5.89,5.89,0,0,1,303.32,425.15Z" style="fill:#263238"></path><path d="M343.07,430.26a3.73,3.73,0,0,1-.81-.61,22,22,0,0,1-1.93-2,24,24,0,0,1-4.48-7.91c-.14-.39-.24-.79-.36-1.17l.5,0a35.29,35.29,0,0,1-1.37,4.86l-.18.49-.24-.46a11.82,11.82,0,0,1-1.32-4.62A5.63,5.63,0,0,1,333,417c.06,0,0,.67.19,1.8a13.13,13.13,0,0,0,1.46,4.44l-.41,0a43.38,43.38,0,0,0,1.3-4.81l.2-1,.3,1c.12.37.22.76.36,1.14a25.79,25.79,0,0,0,4.27,7.85C342.05,429.24,343.13,430.19,343.07,430.26Z" style="fill:#263238"></path><path d="M393.94,395.58a2.73,2.73,0,0,1-.47-.32l.09-.05a24.17,24.17,0,0,1-.89,10.93l-.3.95-.14-1a74.88,74.88,0,0,0-2.33-10.32c-.27-.92-.56-1.81-.85-2.66l.5-.11A32.36,32.36,0,0,1,388,406.7a29.74,29.74,0,0,1-1.59,3.79c-.21.43-.41.75-.53,1s-.2.32-.22.32a10.3,10.3,0,0,1,.58-1.37,36.34,36.34,0,0,0,1.44-3.82,34,34,0,0,0,1.4-13.53l-.23-2.23.73,2.12c.29.85.58,1.76.86,2.68A68.6,68.6,0,0,1,392.68,406l-.45,0a27.53,27.53,0,0,0,1.22-10.78v-.13l.09.09C393.83,395.43,394,395.56,393.94,395.58Z" style="fill:#263238"></path><path d="M376.82,332.72a6.72,6.72,0,0,1-1.24-.71,32.74,32.74,0,0,1-3.16-2.33,37.63,37.63,0,0,1-8.39-9.94l.48-.19c.05.22.1.46.15.7l1.56,7.3.21,1-.63-.79a26.08,26.08,0,0,1-4.12-7.29,20.3,20.3,0,0,1-.71-2.29,3,3,0,0,1-.15-.84c.06,0,.36,1.14,1.13,3a28.17,28.17,0,0,0,4.22,7.1l-.42.2c-.49-2.25-1-4.71-1.6-7.29,0-.24-.1-.48-.15-.7l-.35-1.62.83,1.44a40.2,40.2,0,0,0,8.17,9.92c1.24,1.09,2.3,1.9,3,2.45A8.78,8.78,0,0,1,376.82,332.72Z" style="fill:#263238"></path><g style="opacity:0.30000000000000004"><path d="M355.69,379c-.95,3.9-3.13,7.12-5.41,10.42a35.48,35.48,0,0,1-.19-11.67,26,26,0,0,0-.64,17l3.76-5.78c.71,7.41,4.79,13.31,9.93,18.7C358.42,398.49,356.53,389.21,355.69,379Z"></path></g></g></svg>
